<svg width="8" height="16" viewBox="0 0 8 16" fill="none" xmlns="http://www.w3.org/2000/svg">
<path d="M7.69874 0.399605L5.77991 0.396484C3.62416 0.396484 2.23102 1.84541 2.23102 4.088V5.79004H0.301718C0.135004 5.79004 0 5.92705 0 6.09606V8.56212C0 8.73112 0.135158 8.86797 0.301718 8.86797H2.23102V15.0906C2.23102 15.2596 2.36603 15.3965 2.53274 15.3965H5.04993C5.21665 15.3965 5.35165 15.2595 5.35165 15.0906V8.86797H7.60746C7.77417 8.86797 7.90918 8.73112 7.90918 8.56212L7.9101 6.09606C7.9101 6.01491 7.87823 5.9372 7.82174 5.87977C7.76524 5.82235 7.68828 5.79004 7.60823 5.79004H5.35165V4.3472C5.35165 3.65372 5.51467 3.30167 6.40582 3.30167L7.69843 3.3012C7.865 3.3012 8 3.16419 8 2.99534V0.705463C8 0.536773 7.86515 0.399917 7.69874 0.399605Z" fill="white"/>
</svg>
