<svg width="15" height="16" viewBox="0 0 15 16" fill="none" xmlns="http://www.w3.org/2000/svg">
<g id="Vector">
<path d="M14.959 4.74697C14.9238 3.94996 14.7949 3.40202 14.6103 2.92723C14.4198 2.42324 14.1268 1.97203 13.7429 1.59693C13.3678 1.21599 12.9136 0.919992 12.4155 0.7325C11.9379 0.547871 11.3929 0.418984 10.5958 0.383844C9.79289 0.345728 9.53798 0.336914 7.50145 0.336914C5.46493 0.336914 5.21002 0.345728 4.41003 0.380868C3.61303 0.416008 3.06509 0.545009 2.59041 0.729524C2.08632 0.919992 1.63511 1.21302 1.26001 1.59693C0.879077 1.97203 0.58319 2.42622 0.395585 2.92436C0.210956 3.40202 0.08207 3.94698 0.0469299 4.74399C0.00881365 5.54695 0 5.80187 0 7.8384C0 9.87494 0.00881365 10.1298 0.0439538 10.9298C0.079094 11.7268 0.208094 12.2748 0.392723 12.7496C0.58319 13.2536 0.879077 13.7048 1.26001 14.0799C1.63511 14.4608 2.0893 14.7568 2.58744 14.9443C3.06509 15.1289 3.61005 15.2578 4.40717 15.293C5.20704 15.3282 5.46207 15.3369 7.49859 15.3369C9.53512 15.3369 9.79003 15.3282 10.59 15.293C11.387 15.2578 11.935 15.1289 12.4096 14.9443C13.4177 14.5546 14.2147 13.7575 14.6045 12.7496C14.789 12.2719 14.918 11.7268 14.9531 10.9298C14.9883 10.1298 14.9971 9.87494 14.9971 7.8384C14.9971 5.80187 14.9941 5.54695 14.959 4.74697ZM13.6082 10.8712C13.5759 11.6038 13.4528 11.9994 13.3503 12.2631C13.0982 12.9166 12.5796 13.4352 11.9261 13.6873C11.6624 13.7898 11.264 13.9129 10.5343 13.945C9.7431 13.9803 9.50582 13.989 7.50443 13.989C5.50304 13.989 5.26278 13.9803 4.47448 13.945C3.74191 13.9129 3.34633 13.7898 3.08261 13.6873C2.75742 13.5671 2.46141 13.3766 2.22116 13.1275C1.97208 12.8843 1.78162 12.5913 1.66143 12.2661C1.55887 12.0024 1.43583 11.6038 1.40366 10.8742C1.36841 10.083 1.35971 9.84564 1.35971 7.84424C1.35971 5.84284 1.36841 5.60258 1.40366 4.81439C1.43583 4.08182 1.55887 3.68623 1.66143 3.42251C1.78162 3.0972 1.97209 2.80132 2.22413 2.56094C2.46725 2.31187 2.76028 2.1214 3.08558 2.00133C3.34931 1.89877 3.74787 1.77572 4.47745 1.74344C5.26862 1.7083 5.50602 1.69949 7.50729 1.69949C9.51166 1.69949 9.74894 1.7083 10.5372 1.74344C11.2698 1.77572 11.6654 1.89877 11.9291 2.00133C12.2543 2.1214 12.5503 2.31187 12.7906 2.56094C13.0396 2.80418 13.2301 3.0972 13.3503 3.42251C13.4528 3.68623 13.5759 4.08468 13.6082 4.81439C13.6433 5.60556 13.6521 5.84284 13.6521 7.84424C13.6521 9.84564 13.6433 10.0801 13.6082 10.8712Z" fill="white"/>
<path d="M7.50146 3.98539C5.37418 3.98539 3.64819 5.71129 3.64819 7.83873C3.64819 9.96617 5.37418 11.6921 7.50146 11.6921C9.62887 11.6921 11.3547 9.96617 11.3547 7.83873C11.3547 5.71129 9.62887 3.98539 7.50146 3.98539ZM7.50146 10.3383C6.12139 10.3383 5.00194 9.21895 5.00194 7.83873C5.00194 6.45852 6.12139 5.33917 7.50146 5.33917C8.88166 5.33917 10.001 6.45852 10.001 7.83873C10.001 9.21895 8.88166 10.3383 7.50146 10.3383Z" fill="white"/>
<path d="M12.4067 3.83339C12.4067 4.33015 12.004 4.73294 11.5071 4.73294C11.0103 4.73294 10.6075 4.33015 10.6075 3.83339C10.6075 3.33651 11.0103 2.93384 11.5071 2.93384C12.004 2.93384 12.4067 3.33651 12.4067 3.83339Z" fill="white"/>
</g>
</svg>
