<svg width="122" height="50" viewBox="0 0 122 50" fill="none" xmlns="http://www.w3.org/2000/svg">
<path d="M27.6583 0.0244141C24.3306 9.21315 21.0028 18.4076 17.6751 27.5992C17.652 27.5992 17.6319 27.5992 17.6089 27.5992C14.2782 18.4048 10.9505 9.21027 7.62561 0.0272927C5.07798 0.0272927 2.55914 0.0272927 0 0.0272927C4.65194 12.1782 9.29237 24.3003 13.9328 36.4224C16.4142 36.4224 18.8697 36.4224 21.3483 36.4224C25.9916 24.3003 30.632 12.1782 35.2839 0.0244141C32.719 0.0244141 30.2002 0.0244141 27.6583 0.0244141Z" fill="#2C2C2C"/>
<path d="M77.2522 0.0238748C77.2522 12.169 77.2522 24.2853 77.2522 36.3931C77.5832 36.4564 83.8069 36.442 84.0113 36.3815C84.0113 24.2681 84.0113 12.1546 84.0113 0.0209961C81.7544 0.0238748 79.5148 0.0238748 77.2522 0.0238748Z" fill="#2C2C2C"/>
<path d="M101.816 48.5676C101.822 48.6482 101.819 48.7058 101.83 48.7605C102.141 50.1394 103.745 50.2459 104.467 49.6615C105.011 49.2211 105.184 48.1445 104.205 47.7357C103.978 47.6407 103.727 47.6004 103.483 47.5572C103.244 47.514 103.008 47.4795 102.803 47.3413C102.455 47.1053 102.449 46.6303 102.789 46.3942C103.264 46.0661 103.943 46.2589 104.171 46.7857C104.205 46.8635 104.234 46.9412 104.268 47.0304C104.366 47.0132 104.45 46.9988 104.533 46.9815C104.623 46.9613 104.712 46.9383 104.795 46.9182C104.735 46.4576 104.542 46.1323 104.228 45.9308C103.693 45.5882 102.786 45.6487 102.302 46.0574C101.825 46.4605 101.796 47.1686 102.239 47.6119C102.527 47.8998 102.893 47.9977 103.275 48.0639C103.483 48.1013 103.69 48.1387 103.888 48.2049C104.125 48.2827 104.268 48.4525 104.283 48.7173C104.297 48.9937 104.191 49.2009 103.949 49.3391C103.422 49.6385 102.737 49.414 102.49 48.8641C102.435 48.7432 102.397 48.6137 102.343 48.464C102.173 48.4986 102 48.5331 101.816 48.5676Z" fill="#2C2C2C"/>
<path d="M43.5688 48.4988C43.5256 48.6025 43.4881 48.6802 43.4594 48.7579C43.1024 49.682 41.9106 49.6186 41.4529 49.0141C41.0125 48.4355 41.0038 47.284 41.4443 46.7054C41.9365 46.0577 43.1168 46.052 43.4421 46.9472C43.4622 46.9991 43.491 47.0451 43.5227 47.1113C43.7098 47.0768 43.8854 47.0451 44.0869 47.0077C43.9948 46.5442 43.7789 46.2017 43.3989 45.9685C42.7023 45.5425 41.6918 45.6576 41.1046 46.2276C40.2928 47.0163 40.2669 48.6456 41.0585 49.4574C41.6285 50.0418 42.6418 50.1742 43.3413 49.7568C43.7587 49.5064 44.0639 49.0343 44.0668 48.614C43.9113 48.5766 43.753 48.5391 43.5688 48.4988Z" fill="#2C2C2C"/>
<path d="M92.5582 46.3482C92.5582 46.161 92.5582 45.997 92.5582 45.8358C92.1753 45.7724 90.1976 45.7926 90.0047 45.8588C89.9558 46.4144 89.9759 49.6587 90.0364 49.8832C90.8827 49.8832 91.7291 49.8832 92.5984 49.8832C92.5984 49.7134 92.5984 49.5579 92.5984 49.3679C91.922 49.3679 91.2656 49.3679 90.6035 49.3679C90.6035 48.9275 90.6035 48.5216 90.6035 48.0898C90.9202 48.0898 91.2138 48.0926 91.5103 48.0898C91.8126 48.084 92.1148 48.1128 92.4257 48.0696C92.4257 47.9602 92.4286 47.8825 92.4257 47.8077C92.4228 47.7357 92.4113 47.6608 92.3998 47.563C91.7924 47.563 91.2023 47.563 90.5977 47.563C90.5977 47.1456 90.5977 46.7598 90.5977 46.3482C91.2541 46.3482 91.8932 46.3482 92.5582 46.3482Z" fill="#2C2C2C"/>
<path d="M65.176 45.8218C65.176 45.9398 65.176 46.0434 65.176 46.1471C65.176 46.8869 65.176 47.6238 65.176 48.3637C65.176 48.4874 65.176 48.6141 65.1962 48.7379C65.2912 49.3424 65.6164 49.7569 66.2209 49.921C66.3764 49.9642 66.5404 49.9987 66.7016 49.9987C67.4846 49.9959 68.1006 49.6533 68.2791 48.8214C68.3107 48.6717 68.3107 48.5162 68.3136 48.3637C68.3165 47.6152 68.3165 46.8667 68.3136 46.1183C68.3136 46.0262 68.305 45.9312 68.2992 45.8333C68.0949 45.8333 67.9106 45.8333 67.7091 45.8333C67.7091 45.9628 67.7091 46.0693 67.7091 46.173C67.7091 46.9128 67.712 47.6497 67.7062 48.3896C67.7062 48.522 67.6947 48.6602 67.6631 48.7868C67.5594 49.2129 67.2169 49.4604 66.7448 49.4604C66.2699 49.4604 65.9273 49.2215 65.8237 48.7955C65.7834 48.6285 65.7719 48.4529 65.769 48.283C65.7632 47.572 65.7661 46.8639 65.7661 46.1528C65.7661 46.0492 65.7661 45.9456 65.7661 45.8275C65.5617 45.8218 65.3862 45.8218 65.176 45.8218Z" fill="#2C2C2C"/>
<path d="M54.8329 46.3312C55.2733 46.3312 55.6735 46.3312 56.0794 46.3312C56.0794 46.1498 56.0794 45.9915 56.0794 45.8389C55.6677 45.7727 53.1402 45.7958 52.9531 45.862C52.9531 46.0117 52.9531 46.1613 52.9531 46.3398C53.3763 46.3398 53.7851 46.3398 54.2284 46.3398C54.2284 46.4694 54.2284 46.573 54.2284 46.6766C54.2284 47.6352 54.2284 48.5938 54.2284 49.5524C54.2284 49.6618 54.2428 49.7712 54.2514 49.8748C54.4616 49.8748 54.6372 49.8748 54.8329 49.8748C54.8329 48.6888 54.8329 47.5316 54.8329 46.3312Z" fill="#2C2C2C"/>
<path d="M31.1992 49.8832C31.1992 48.51 31.1992 47.1743 31.1992 45.8242C30.9948 45.8242 30.8106 45.8242 30.6292 45.8242C30.5716 46.1927 30.586 49.673 30.6465 49.8832C30.8192 49.8832 30.9977 49.8832 31.1992 49.8832Z" fill="#2C2C2C"/>
<path d="M40.3359 8.36134C40.4885 8.17135 40.6008 8.03317 40.7332 7.86621C40.3532 7.91227 40.3475 7.91803 40.3359 8.36134Z" fill="#2C2C2C"/>
<path d="M91.7031 36.4342C91.7031 24.2747 91.7031 12.1612 91.7031 0.0276168C91.801 0.0189808 91.8845 0.00746606 91.968 0.00746606C95.9607 0.00746606 99.9506 -0.0126847 103.943 0.0132234C106.54 0.0304955 109.073 0.453661 111.5 1.42953C113.489 2.2298 115.268 3.35825 116.794 4.87243C118.533 6.59964 119.765 8.6435 120.574 10.9522C121.146 12.5902 121.48 14.2771 121.627 16.0043C121.711 17.0089 121.751 18.0136 121.716 19.0211C121.616 21.8854 121.097 24.6547 119.848 27.2599C118.507 30.0522 116.517 32.2544 113.863 33.8521C111.96 34.9978 109.894 35.7088 107.712 36.0946C106.338 36.3364 104.954 36.4371 103.56 36.4371C99.7318 36.4314 95.9031 36.4342 92.0745 36.4342C91.9593 36.4342 91.8471 36.4342 91.7031 36.4342ZM98.494 30.3775C98.6408 30.3775 98.753 30.3775 98.8653 30.3775C100.564 30.3775 102.262 30.3804 103.961 30.3775C104.98 30.3746 105.99 30.2854 106.983 30.0522C110.072 29.3239 112.329 27.5593 113.679 24.6691C114.517 22.8757 114.836 20.9642 114.92 19.0067C114.96 18.0654 114.926 17.1298 114.828 16.1914C114.687 14.8096 114.393 13.4653 113.855 12.1843C112.741 9.52725 110.855 7.6849 108.123 6.7263C106.767 6.25132 105.365 6.0786 103.938 6.07284C102.219 6.0642 100.503 6.06996 98.7847 6.07284C98.6926 6.07284 98.5976 6.08147 98.4911 6.08723C98.494 14.1821 98.494 22.2568 98.494 30.3775Z" fill="#2C2C2C"/>
<path d="M59.1683 36.9639C59.3526 36.8631 59.5368 36.7624 59.7182 36.6587C60.4925 36.2154 61.264 35.7692 62.0384 35.3259C62.2284 35.2165 62.427 35.1187 62.6141 35.0035C62.7034 34.9488 62.784 34.8768 62.8502 34.7962C62.879 34.7617 62.8617 34.6897 62.8703 34.5717C62.7638 34.6494 62.689 34.6753 62.6688 34.7243C62.5997 34.897 62.4471 34.9459 62.3032 35.0208C61.8513 35.2511 61.4051 35.4929 60.956 35.7261C60.7516 35.8297 60.5443 35.9276 60.3342 36.0168C59.9398 36.1866 59.5397 36.3536 59.1424 36.5177C59.0474 36.558 58.9524 36.5897 58.8459 36.6012C59.0359 36.391 59.2979 36.3075 59.5397 36.1895C59.7815 36.0715 60.0578 36.0139 60.2478 35.8124C60.2392 35.7923 60.2306 35.7721 60.2219 35.752C60.0895 35.7951 59.9513 35.8268 59.8276 35.8873C59.5685 36.0139 59.318 36.155 59.0618 36.2874C58.987 36.3248 58.9006 36.3795 58.8258 36.3738C58.5523 36.3536 58.322 36.4716 58.0888 36.581C57.8902 36.6731 57.6916 36.7681 57.4872 36.8545C57.3231 36.9236 57.1561 36.9265 56.9546 36.8315C57.208 36.6616 57.4843 36.6933 57.7117 36.5839C57.942 36.4745 58.1608 36.3392 58.4458 36.1809C58.3019 36.1492 58.227 36.132 58.1493 36.1176C58.2069 35.9851 58.3249 35.9391 58.4515 35.9276C58.5782 35.9132 58.6674 35.8527 58.7308 35.7491C58.8488 35.5533 59.0302 35.4267 59.2259 35.3202C59.4533 35.1964 59.6836 35.0812 59.9168 34.9661C60.9099 34.4767 61.8311 33.8722 62.6659 33.1439C62.7552 33.0662 62.8358 32.9769 62.8991 32.8733C62.7293 32.8531 62.6285 32.9596 62.522 33.046C62.2859 33.2418 62.0614 33.4548 61.8196 33.639C61.6929 33.734 61.5346 33.7916 61.3907 33.8607C61.1834 33.9585 60.9761 34.0535 60.7689 34.1514C60.6652 34.2004 60.5674 34.2781 60.4609 34.2982C60.0463 34.376 59.6865 34.5717 59.3324 34.7818C59.2749 34.8164 59.2144 34.8423 59.1424 34.8768C59.105 34.8164 59.0733 34.7646 59.0388 34.7041C58.7999 34.7559 58.5725 34.8078 58.3422 34.8596C58.3364 34.8452 58.3306 34.8308 58.3249 34.8164C58.3853 34.779 58.4429 34.7358 58.5034 34.7012C58.9294 34.4594 59.3641 34.2349 59.7786 33.9758C60.0694 33.7945 60.3313 33.567 60.6106 33.3655C60.9128 33.1439 61.2151 32.9251 61.5202 32.7092C61.7937 32.5135 62.0729 32.3292 62.3435 32.1306C62.4471 32.0529 62.5335 31.9492 62.6256 31.86C62.6141 31.8427 62.6026 31.8254 62.5911 31.8082C62.5306 31.837 62.4615 31.8571 62.4068 31.8945C62.0067 32.1594 61.6152 32.4386 61.2064 32.6862C60.7977 32.9337 60.3659 33.1439 59.9485 33.3771C59.7901 33.4663 59.6347 33.567 59.5051 33.6908C59.295 33.8952 59.0503 34.0392 58.7826 34.1485C58.5696 34.2349 58.3594 34.3299 58.1464 34.4134C58.0658 34.445 57.9766 34.4537 57.8557 34.4796C57.9593 34.2234 58.1896 34.2349 58.3335 34.1255C58.3709 33.8319 58.3709 33.8376 58.6962 33.7743C58.774 33.7599 58.8661 33.7139 58.9064 33.6505C59.0388 33.449 59.2345 33.331 59.4274 33.2072C59.9312 32.8906 60.4378 32.5825 60.9387 32.263C61.074 32.1766 61.218 32.0903 61.2669 31.8744C61.1892 31.8917 61.123 31.8917 61.0769 31.9204C60.9618 31.9895 60.8552 32.0701 60.7487 32.1536C60.3457 32.4703 59.9197 32.738 59.39 32.7927C59.1511 32.8186 58.9726 32.9481 58.8171 33.1381C58.6473 33.3425 58.4487 33.5267 58.2529 33.711C58.132 33.8233 58.0572 33.829 57.8326 33.8146C57.9996 33.6707 58.1493 33.5383 58.3306 33.3799C58.1666 33.3224 58.0831 33.3886 57.9996 33.4433C57.8614 33.5325 57.7319 33.6304 57.5966 33.7196C57.493 33.7858 57.3836 33.8492 57.2224 33.7657C57.2742 33.711 57.3087 33.6563 57.3577 33.6275C57.5246 33.5325 57.6916 33.4375 57.8672 33.3598C58.4285 33.118 58.9179 32.7668 59.3785 32.3724C59.6117 32.1738 59.8419 31.9694 60.0694 31.765C60.2824 31.5721 60.4954 31.3821 60.766 31.2641C60.8639 31.2209 60.9445 31.1374 61.0136 31.0425C60.6912 31.0856 60.4609 31.3102 60.1845 31.4714C60.2853 31.2958 60.3831 31.1921 60.6192 31.054C60.838 30.9273 61.0366 30.7834 61.192 30.5819C61.2381 30.5214 61.3014 30.4753 61.3676 30.435C61.9923 30.0407 62.5018 29.5225 62.9768 28.9669C63.7771 28.0342 64.5025 27.044 65.1387 25.9904C65.8641 24.7813 66.2672 23.46 66.5291 22.084C66.5924 21.7472 66.699 21.4162 66.7652 21.0794C66.8342 20.7339 66.8947 20.3827 66.9264 20.0315C67.0789 18.2064 66.8688 16.4101 66.437 14.6426C66.2009 13.6754 65.8958 12.7254 65.5993 11.7755C65.4525 11.312 65.2654 10.8572 64.9113 10.4945C64.8249 10.4052 64.7789 10.2987 64.8105 10.1807C64.848 10.0396 64.7933 9.93024 64.704 9.841C64.2233 9.34875 63.875 8.76438 63.5382 8.17137C63.4432 8.00153 63.3194 7.87199 63.1035 7.82881C62.9941 7.80578 62.8905 7.70502 62.8099 7.61579C62.6717 7.45746 62.5565 7.27898 62.4241 7.1149C62.3262 6.99687 62.2255 6.87884 62.1046 6.78673C62.0384 6.73779 61.9146 6.70612 61.8455 6.73491C61.6987 6.79536 61.6008 6.73203 61.5058 6.65431C61.2957 6.47295 61.0855 6.28872 60.8869 6.09584C60.6163 5.83101 60.3083 5.6295 59.9571 5.48557C58.2961 4.80044 56.566 4.47227 54.7726 4.46364C53.6528 4.45788 52.5416 4.53272 51.4823 4.90119C50.6705 5.1833 49.8846 5.5489 49.0987 5.90009C48.6641 6.09584 48.2236 6.29159 47.8494 6.60249C47.8062 6.63704 47.74 6.68022 47.6968 6.67158C47.4665 6.61976 47.3456 6.76945 47.2074 6.90187C47.075 7.02854 46.9397 7.14944 46.7929 7.25883C46.7066 7.32504 46.5972 7.36246 46.4907 7.41716C46.4532 7.33655 46.4331 7.28762 46.387 7.18686C46.3698 7.23292 46.3496 7.25595 46.3496 7.28186C46.341 7.5467 46.1884 7.69351 45.9639 7.80578C45.7537 7.90941 45.5896 8.07349 45.4658 8.275C45.3421 8.47939 45.178 8.62908 44.9506 8.71256C44.7807 8.77589 44.6541 8.87665 44.6109 9.06952C44.5994 9.12133 44.5274 9.18754 44.4785 9.1933C44.3173 9.21057 44.2482 9.32284 44.1848 9.44087C44.1186 9.56753 44.0639 9.70283 44.0035 9.83237C43.9545 9.93312 43.9027 10.0339 43.7789 10.172C43.7386 10.0886 43.6983 10.0051 43.6609 9.9216C43.6379 9.93024 43.6149 9.936 43.5889 9.94463C43.5429 10.0339 43.4882 10.1202 43.4537 10.2152C43.3644 10.4714 43.2378 10.7017 43.042 10.8975C42.8405 11.1019 42.7282 11.3523 42.734 11.6488C42.7369 11.7352 42.7426 11.833 42.7052 11.905C42.5008 12.2936 42.4288 12.7427 42.1554 13.0939C41.9596 13.3443 41.8186 13.6092 41.8013 13.9258C41.7754 14.3778 41.6545 14.7923 41.3177 15.155C41.2918 15.0428 41.2659 14.9363 41.2428 14.8355C41.4846 14.7031 41.4904 14.7031 41.5221 14.4354C41.5537 14.1677 41.5595 13.8999 41.5998 13.6351C41.6286 13.448 41.6631 13.2494 41.7524 13.0881C41.9539 12.7226 42.092 12.3368 42.2043 11.9396C42.3655 11.3696 42.6275 10.8543 42.9672 10.3707C43.6897 9.33723 44.4871 8.36712 45.4687 7.56685C46.0186 7.11777 46.6116 6.7234 47.1873 6.31175C47.2765 6.24841 47.383 6.20523 47.5385 6.12463C47.4867 6.25993 47.4608 6.32614 47.4349 6.40098C47.4694 6.40098 47.5011 6.40962 47.5241 6.40098C47.8695 6.23402 48.215 6.06706 48.5547 5.89146C48.9951 5.66116 49.4327 5.42223 49.8702 5.18618C50.0285 5.09982 50.1898 5.01346 50.3423 4.91271C50.6676 4.69393 50.99 4.46939 51.3124 4.24486C51.2002 4.21607 51.0764 4.1844 50.9238 4.1441C50.8605 4.21607 50.8 4.32546 50.705 4.3744C50.6302 4.41182 50.5179 4.3744 50.3999 4.36864C50.207 4.54136 50.0976 4.55287 49.6745 4.42333C49.6313 4.29091 49.7177 4.19304 49.781 4.09229C49.8414 3.99729 49.9048 3.90517 50.0113 3.74972C49.8731 3.767 49.8011 3.76124 49.7436 3.78715C49.5046 3.8879 49.2715 3.99729 49.0354 4.1038C48.8512 4.18728 48.6612 4.2391 48.4539 4.2391C48.3532 4.2391 48.238 4.29955 48.1516 4.36288C47.9962 4.47515 47.8638 4.6162 47.7141 4.73423C47.6306 4.80044 47.5299 4.84362 47.3946 4.91847C47.5241 4.56151 48.2553 4.01744 48.6439 3.95987C48.7101 3.68639 48.949 3.60579 49.1909 3.54246C49.4701 3.47049 49.7522 3.41868 50.0314 3.34671C50.1984 3.30353 50.3596 3.24596 50.5179 3.17975C50.5985 3.1452 50.6676 3.07899 50.7281 2.99839C50.3625 2.89764 50.0832 3.15672 49.7033 3.2258C49.827 3.11641 49.9105 3.04157 50.0401 2.9293C49.8328 2.96384 49.6889 2.98687 49.5133 3.01566C49.5795 2.76809 49.7839 2.73643 49.9393 2.65871C50.1063 2.57522 50.2847 2.51189 50.4575 2.43993C50.4546 2.4169 50.4546 2.39675 50.4517 2.37372C50.3855 2.37372 50.3135 2.35644 50.256 2.37659C50.112 2.42553 49.971 2.48886 49.8328 2.55507C49.6428 2.65007 49.4614 2.74507 49.234 2.72491C49.1448 2.71628 49.044 2.75946 48.9606 2.80264C48.6381 2.9696 48.3157 3.14232 48.002 3.32368C47.3715 3.68639 46.7526 4.07214 46.1135 4.42045C45.4918 4.76014 44.9448 5.17467 44.4871 5.7245C43.9545 6.36644 43.3759 6.97096 42.8203 7.58988C42.7772 7.63594 42.7397 7.68775 42.7282 7.76548C43.422 7.13505 44.1129 6.50174 44.8297 5.84828C44.8095 5.9663 44.7951 6.05842 44.7778 6.15342C44.7922 6.16205 44.8066 6.17069 44.8181 6.17933C44.9563 5.99509 45.0945 5.81086 45.2442 5.60935C45.3277 5.75328 45.273 5.86555 45.2068 5.96343C45.0197 6.23114 44.8239 6.49022 44.6282 6.75218C44.5591 6.84718 44.4842 6.9393 44.4123 7.03141C44.4266 7.04581 44.4439 7.0602 44.4583 7.07747C44.5072 7.04581 44.5648 7.0199 44.608 6.9796C44.7347 6.86157 44.8498 6.73203 44.9794 6.61689C45.0484 6.55643 45.1348 6.49886 45.2212 6.47007C45.3421 6.43265 45.4284 6.53916 45.3795 6.65719C45.3507 6.72627 45.3046 6.79248 45.2528 6.84718C45.1348 6.97384 45.0197 7.10338 44.8872 7.21277C44.7289 7.34519 44.6282 7.48912 44.6512 7.70502C44.6685 7.84896 44.585 7.91517 44.4554 7.94108C44.4266 7.94683 44.3979 7.94971 44.3691 7.95259C43.9603 8.02744 43.9315 8.06486 43.8912 8.4909C43.8855 8.55423 43.8595 8.61756 43.8394 8.69817C43.7386 8.67802 43.6494 8.66074 43.5256 8.63771C43.4997 8.79892 43.4767 8.94285 43.4537 9.10406C43.3846 9.06088 43.3212 9.02346 43.2205 8.96301C43.2262 9.04937 43.2234 9.09255 43.232 9.13573C43.2608 9.26814 43.2349 9.3689 43.0852 9.39193C42.9441 9.41496 42.9211 9.50995 42.9355 9.6251C42.9614 9.841 42.8722 10.0108 42.7599 10.1864C42.5382 10.5319 42.331 10.8888 42.1151 11.24C42.0402 11.3581 41.9596 11.4732 41.8646 11.6114C41.761 11.5135 41.689 11.4444 41.6055 11.3667C41.2486 11.7179 41.3896 12.2332 41.1737 12.6333C41.1075 12.6333 41.0442 12.6333 40.9521 12.6333C40.906 12.76 40.8542 12.901 40.7938 13.0709C40.7506 13.045 40.716 13.0248 40.67 12.996C40.4944 13.235 40.8053 13.4595 40.693 13.7099C40.6354 13.6812 40.5894 13.661 40.5289 13.6322C40.4023 14.0496 40.267 14.4584 40.1633 14.8729C40.123 15.0341 40.1345 15.2155 40.1489 15.3853C40.1864 15.7797 40.1777 16.1885 40.4656 16.5195C40.5145 16.5771 40.4944 16.7038 40.4886 16.7959C40.48 16.9398 40.4483 17.0809 40.4368 17.2248C40.4253 17.3774 40.457 17.5098 40.5376 17.6566C40.6268 17.8149 40.6469 18.0222 40.6527 18.2093C40.6613 18.5548 40.6268 18.9002 40.6297 19.2428C40.6326 19.5105 40.6412 19.7811 40.6872 20.043C40.716 20.2071 40.788 20.3798 40.8888 20.5094C41.0615 20.7339 41.1047 20.9671 41.0615 21.2434C40.9089 21.2463 40.883 21.1312 40.8513 21.0419C40.7304 20.6879 40.6095 20.3338 40.5116 19.9739C40.4109 19.6055 40.3418 19.2284 40.2094 18.8484C40.1921 18.9232 40.1518 19.0009 40.1633 19.0729C40.1979 19.3003 40.2554 19.522 40.2957 19.7465C40.3332 19.9538 40.3965 20.1611 40.3907 20.3654C40.3792 20.7656 40.4541 21.1484 40.5779 21.5227C40.8168 22.2539 41.1133 22.962 41.5451 23.604C41.7149 23.8573 41.9308 24.0789 42.1381 24.3035C42.3396 24.5223 42.5555 24.7238 42.5641 25.0519C42.567 25.1153 42.6419 25.1786 42.6879 25.239C42.8347 25.4262 42.9816 25.6104 43.1053 25.8177C42.9355 25.7486 42.8261 25.6161 42.7196 25.478C42.5267 25.2304 42.5267 25.2304 42.2043 25.3859C42.069 25.2275 41.9222 25.0548 41.7754 24.8821C41.7581 24.8994 41.7437 24.9138 41.7264 24.931C42.4346 26.0681 43.4047 26.949 44.5159 27.6974C44.5015 27.7205 44.4871 27.7435 44.4698 27.7636C44.3403 27.7061 44.1906 27.6715 44.087 27.5852C43.8049 27.352 43.4709 27.2253 43.1312 27.139C42.5613 26.995 42.1266 26.6784 41.8071 26.1948C41.499 25.7313 41.1968 25.2649 40.8916 24.8015C40.8341 24.7151 40.8024 24.528 40.6613 24.6144C40.5059 24.7094 40.6585 24.8303 40.716 24.9281C40.7794 25.0404 40.8628 25.1412 40.9665 25.2937C40.8427 25.2736 40.7822 25.2649 40.7103 25.2534C40.7074 25.2851 40.6959 25.3168 40.7045 25.334C40.8168 25.5125 40.9204 25.6968 41.05 25.8608C41.2457 26.1084 41.4645 26.3387 41.666 26.5834C41.7351 26.6669 41.7898 26.7619 41.8272 26.8741C41.5998 26.8252 41.4156 26.7014 41.2831 26.5373C40.9837 26.1631 40.7045 25.7716 40.4339 25.3801C40.3476 25.2563 40.3101 25.1009 40.2497 24.9598C40.2353 24.9253 40.2238 24.8792 40.1979 24.8591C39.8812 24.6086 39.7718 24.2373 39.6106 23.8947C39.6049 23.8803 39.5818 23.8717 39.5473 23.8486C39.5358 24.0703 39.6049 24.2632 39.674 24.4532C39.7833 24.7468 39.9417 25.026 39.9359 25.3571C39.9359 25.4319 40.0223 25.5413 40.0942 25.573C40.2497 25.6392 40.3015 25.7543 40.3476 25.8954C40.4109 26.0854 40.4857 26.2725 40.5635 26.4596C40.5807 26.4999 40.6182 26.5287 40.6498 26.5661C40.8053 26.4769 40.6872 26.3301 40.7506 26.2092C40.9348 26.3445 41.001 26.546 41.0874 26.7331C41.2313 27.0353 41.3695 27.3405 41.5221 27.6399C41.7466 28.0832 42.1093 28.4171 42.449 28.7683C42.4663 28.7856 42.4979 28.7884 42.544 28.8086C42.567 28.7338 42.5872 28.6675 42.6102 28.5956C42.639 28.6042 42.6793 28.6042 42.6908 28.6215C42.7455 28.7165 42.8031 28.8144 42.8405 28.918C42.8664 28.9871 42.8578 29.0706 42.8808 29.1425C42.9355 29.3095 43.0852 29.3786 43.2118 29.2663C43.3587 29.1339 43.494 29.1627 43.6321 29.2346C43.897 29.3699 44.1561 29.5168 44.4123 29.6636C44.6857 29.8219 44.9534 29.9889 45.2269 30.1472C45.2989 30.1904 45.3824 30.2134 45.4774 30.222C45.3075 29.9917 45.0571 29.8478 44.8584 29.6578C45.0916 29.7125 45.3219 29.7557 45.5436 29.8277C45.6674 29.868 45.7825 29.9428 45.889 30.0205C46.0416 30.1328 46.1855 30.2594 46.341 30.389C46.5396 30.2134 46.7353 30.2623 46.9397 30.3401C47.1297 30.4149 47.3111 30.5329 47.6018 30.5502C47.4838 30.3919 47.4061 30.2854 47.314 30.1645C47.455 30.0925 47.5586 30.1616 47.6536 30.2307C47.7861 30.3257 47.9098 30.435 48.0394 30.53C48.1459 30.6106 48.2553 30.6913 48.4194 30.6452C48.4194 30.5876 48.4194 30.5272 48.4194 30.4638C48.4539 30.4638 48.4885 30.4552 48.5057 30.4667C48.5633 30.5013 48.6238 30.5358 48.6641 30.5876C48.7648 30.7028 48.8771 30.7373 49.0239 30.6855C49.2168 30.6164 49.378 30.72 49.5363 30.8064C49.9278 31.0252 50.2329 31.3447 50.5381 31.6642C50.9181 32.0644 51.2347 32.5048 51.4276 33.0287C51.4736 33.1525 51.5398 33.2677 51.6061 33.4058C51.678 33.3655 51.727 33.3368 51.7817 33.3051C51.8047 33.3339 51.8248 33.354 51.8364 33.3799C51.9688 33.6678 51.9774 33.9758 51.963 34.2838C51.9429 34.7617 51.8104 35.2079 51.5917 35.6311C51.5111 35.7865 51.4132 35.9247 51.2376 35.9938C51.108 36.0427 51.0476 36.1463 51.0188 36.2759C50.9958 36.368 50.9727 36.463 50.944 36.5522C50.9065 36.6789 50.8403 36.771 50.705 36.8171C50.446 36.9034 50.2128 37.0243 50.0717 37.2805C50.0343 37.3468 49.9422 37.3986 49.8645 37.4245C49.5564 37.5195 49.2427 37.6001 48.9548 37.6807C48.8454 37.6145 48.8627 37.4677 48.7245 37.4907C48.5431 37.5195 48.3215 37.4101 48.1833 37.5943C48.002 37.8332 47.7573 37.8937 47.4809 37.9225C46.4676 38.0319 45.509 37.8879 44.6541 37.2949C44.0006 36.8401 43.3529 36.3795 42.7023 35.9189C42.4288 35.7261 42.1611 35.5303 41.8416 35.4094C41.6775 35.3461 41.5192 35.1906 41.4213 35.0352C40.9377 34.2666 40.2698 33.6764 39.5703 33.1209C37.7251 31.6585 36.2339 29.8996 35.1228 27.827C34.4607 26.592 33.9022 25.3081 33.5193 23.9552C33.4762 23.7997 33.4445 23.6414 33.3956 23.4284C33.5251 23.509 33.5999 23.555 33.7381 23.6414C33.6748 23.483 33.6546 23.3621 33.5884 23.2844C33.2315 22.8584 33.171 22.3431 33.1509 21.8249C33.1135 20.7915 33.1019 19.7552 33.0818 18.7188C33.0818 18.6728 33.0933 18.6238 33.1365 18.5691C33.1538 18.6238 33.1797 18.6757 33.1825 18.7304C33.2257 19.2744 33.2459 19.8214 33.3063 20.3654C33.4301 21.4421 33.5798 22.5158 33.8821 23.5579C33.9281 23.7133 33.9886 23.8659 34.0519 24.0156C34.0807 24.0847 34.1181 24.1711 34.1757 24.2027C34.3772 24.3179 34.4117 24.5136 34.452 24.7122C34.547 25.1901 34.5643 25.2304 34.7514 25.4175C34.7226 25.2966 34.6938 25.1757 34.6593 25.0548C34.3542 23.9177 34.0174 22.7864 33.7554 21.6378C33.4906 20.4835 33.4071 19.3061 33.5222 18.123C33.5971 17.34 33.7122 16.5627 33.8043 15.7826C33.8216 15.6415 33.836 15.4947 33.8216 15.3537C33.8015 15.132 33.8446 14.9334 33.9598 14.7491C34.1872 14.3807 34.2908 13.9805 34.2966 13.5459C34.2995 13.3674 34.3455 13.1889 34.3772 12.9759C34.5355 13.0507 34.6161 13.0075 34.6622 12.8751C34.737 12.6563 34.8205 12.4433 34.8925 12.2245C34.9126 12.1641 34.9241 12.0835 34.9011 12.0288C34.8148 11.8532 34.8579 11.6862 34.9213 11.5279C35.2753 10.6384 35.6323 9.74888 35.9921 8.86225C36.0152 8.80468 36.0583 8.75862 36.1447 8.7212C36.1303 8.81907 36.1274 8.9227 36.1015 9.0177C36.0152 9.33148 35.9259 9.64525 35.8194 9.95327C35.7906 10.0339 35.6927 10.0886 35.6409 10.1634C35.5834 10.2469 35.5402 10.3361 35.497 10.4283C35.4912 10.4369 35.5632 10.4973 35.569 10.4945C35.6467 10.434 35.7503 10.3793 35.7906 10.2958C35.9144 10.0483 36.0065 9.78343 36.1188 9.5301C36.2426 9.25087 36.375 8.97452 36.5103 8.69817C36.5506 8.61756 36.6139 8.55135 36.7204 8.49378C36.7262 8.55423 36.7463 8.61469 36.7377 8.67226C36.6888 9.02921 36.5909 9.37178 36.3779 9.66252C36.1591 9.96191 36.1245 10.2699 36.2742 10.6211C36.4585 10.5089 36.5017 10.3045 36.5909 10.1346C36.6773 9.96766 36.7463 9.79206 36.8759 9.63374C36.8385 9.89282 36.8039 10.1519 36.7665 10.4081C36.778 10.411 36.7866 10.4139 36.7982 10.4167C36.8241 10.3361 36.8529 10.2555 36.8788 10.1778C36.9047 10.1058 36.9191 10.0396 37.0313 10.0627C37.0688 10.0713 37.1321 9.98781 37.1753 9.93888C37.2645 9.841 37.348 9.74025 37.4315 9.64237C37.4545 9.65101 37.4746 9.65677 37.4977 9.6654C37.4862 9.74025 37.4862 9.81797 37.4603 9.88706C37.2184 10.552 36.9738 11.2199 36.7233 11.882C36.4729 12.547 36.2052 13.2033 36.0958 13.9086C36.0555 14.1705 36.0612 14.4382 36.0439 14.7031C36.0699 14.7117 36.0929 14.7204 36.1188 14.729C36.1562 14.6628 36.208 14.6023 36.2311 14.5304C36.352 14.1273 36.4556 13.7186 36.5851 13.3184C36.7262 12.8809 36.8788 12.4491 37.0457 12.0202C37.2444 11.5106 37.4689 11.0126 37.6704 10.506C37.846 10.0684 38.0561 9.65101 38.3325 9.26527C38.3642 9.21921 38.4045 9.18178 38.4649 9.153C38.2433 9.87842 37.7884 10.5089 37.5956 11.2516C37.6618 11.1393 37.7308 11.0299 37.8115 10.9004C37.9151 11.1537 37.9151 11.1537 37.7136 11.9971C37.8431 11.7812 37.9727 11.5653 38.1252 11.3091C38.1684 11.4272 38.1914 11.4962 38.2173 11.5711C38.2433 11.5624 38.2807 11.5624 38.2893 11.5452C38.4332 11.2861 38.5743 11.0241 38.7182 10.7651C39.104 10.0598 39.4897 9.35163 39.8783 8.64635C40.0194 8.39303 40.0395 8.39015 40.2554 8.51105C40.0482 8.91119 39.8467 9.3142 39.6308 9.70858C39.5358 9.88418 39.4178 10.0511 39.3026 10.2152C39.0291 10.6096 38.7758 11.0126 38.6463 11.5164C38.7125 11.5078 38.7528 11.502 38.8017 11.4934C38.8276 11.5682 38.8564 11.6459 38.891 11.7467C39.0781 11.6056 39.1472 11.4156 39.2134 11.2343C39.3429 10.8946 39.4523 10.5463 39.5761 10.2037C39.6365 10.031 39.6999 9.86403 39.9071 9.8007C40.0252 9.76328 40.0424 9.63949 40.0309 9.53298C40.0079 9.3286 40.1 9.19042 40.2439 9.058C40.3188 8.98891 40.4023 8.89392 40.4138 8.8018C40.4397 8.62044 40.4627 8.46787 40.6872 8.43621C40.7275 8.43045 40.7765 8.30955 40.7765 8.24334C40.7765 8.05334 40.8657 7.95835 41.0269 7.86911C41.1939 7.77411 41.3522 7.63881 41.4674 7.48625C41.6286 7.26747 41.7437 7.01702 41.879 6.78097C41.8646 6.76945 41.8474 6.75794 41.833 6.7493C41.5192 7.07747 41.2083 7.40564 40.8945 7.73381C40.8744 7.7223 40.8571 7.71078 40.8369 7.69927C40.9003 7.55821 40.9377 7.39988 41.0269 7.28186C41.2803 6.94505 41.548 6.61976 41.8186 6.29447C41.8905 6.20811 41.9913 6.14478 42.0892 6.06706C42.1381 6.10448 42.1813 6.13615 42.2417 6.1822C42.2964 6.1419 42.3655 6.10736 42.4116 6.05554C43.7214 4.5759 45.3507 3.58564 47.1873 2.90051C48.12 2.55219 49.0469 2.1866 49.9767 1.82677C50.0804 1.78647 50.1754 1.72889 50.256 1.63965C50.1466 1.65405 50.0372 1.67132 49.9278 1.68571C49.922 1.67132 49.9163 1.65693 49.9134 1.64541C50.0804 1.56193 50.2473 1.48133 50.4114 1.39785C50.5064 1.34891 50.5956 1.30285 50.5726 1.16179C50.5669 1.11573 50.6244 1.03225 50.6705 1.01498C50.9037 0.925742 51.1368 0.839382 51.3959 0.896955C51.4736 0.914227 51.5802 0.917106 51.6377 0.873926C51.9688 0.629239 52.3631 0.637875 52.7403 0.60333C54.1882 0.479547 55.6103 0.623481 57.0036 1.04665C57.4987 1.19634 58.0082 1.28846 58.5062 1.42663C58.9668 1.55617 59.4332 1.67708 59.8736 1.85843C60.9733 2.31039 62.0384 2.84294 63.0459 3.47625C63.9959 4.07213 64.9314 4.69969 65.7461 5.47981C66.2815 5.98933 66.7882 6.52765 67.3064 7.05156C67.3726 7.12065 67.4388 7.18974 67.5107 7.26747C67.5366 7.22429 67.5568 7.18686 67.5913 7.12641C67.8965 7.52367 68.2131 7.89789 68.3427 8.39303C68.3657 8.38151 68.3916 8.37 68.4146 8.35848C68.3686 8.23758 68.3369 8.11092 68.2765 8.00153C67.7813 7.08899 67.2488 6.19948 66.5521 5.42511C66.3679 5.22073 66.1376 5.05664 65.9332 4.86953C65.7691 4.72272 65.7663 4.69681 65.8641 4.44924C65.7202 4.35425 65.5734 4.25349 65.4208 4.1585C65.2999 4.08365 65.1675 4.0232 65.0523 3.93684C64.989 3.8879 64.9113 3.8073 64.9084 3.73821C64.9027 3.50791 64.753 3.38989 64.5918 3.29201C64.3787 3.16535 64.1542 3.05308 63.9268 2.95521C63.5065 2.77673 63.1294 2.5378 62.7724 2.25857C62.6976 2.19812 62.6199 2.14054 62.5594 2.0657C62.4443 1.91889 62.309 1.80662 62.1363 1.73465C62.0816 1.71162 62.0413 1.65405 61.9866 1.60799C62.2284 1.47557 62.6055 1.66556 62.7408 1.98797C63.2042 1.96494 63.5612 2.23554 63.9181 2.49174C64.2319 2.71628 64.5601 2.90915 64.943 2.99263C65.0639 3.01854 65.1761 3.07611 65.2942 3.11929C65.441 3.17399 65.5734 3.24308 65.6281 3.41004C65.6741 3.54822 65.7893 3.58276 65.9073 3.53958C66.0656 3.48201 66.2153 3.47337 66.3852 3.5367C66.2009 3.23444 65.8641 3.07323 65.6655 2.73067C65.8929 2.74219 65.962 2.93218 66.1405 2.984C66.1175 2.90051 66.1002 2.82855 66.0772 2.74794C66.1059 2.7537 66.1376 2.75082 66.1606 2.76234C66.2902 2.83143 66.2902 2.96384 66.319 3.08475C66.365 3.28914 66.437 3.3755 66.6212 3.36398C66.9321 3.34383 67.1308 3.48489 67.2776 3.73821C67.292 3.76412 67.3121 3.78427 67.338 3.81881C67.4071 3.76987 67.4647 3.72669 67.5194 3.68639C67.5366 3.70366 67.5597 3.71518 67.5654 3.72957C67.7439 4.20455 68.1066 4.5356 68.4751 4.85801C68.809 5.14876 69.0882 5.47981 69.3128 5.87131C69.569 6.32038 69.8885 6.73203 70.1706 7.16671C71.2098 8.77877 72.013 10.506 72.6233 12.3195C72.8795 13.0853 73.0263 13.8798 73.1241 14.6801C73.2594 15.7941 73.3602 16.911 73.4811 18.0251C73.5272 18.454 73.5876 18.8829 73.6538 19.309C73.7719 20.0689 73.7258 20.826 73.5531 21.5658C73.2307 22.9563 72.8766 24.338 72.534 25.7255C72.5225 25.7716 72.5081 25.8148 72.5254 25.8752C72.5686 25.8119 72.6146 25.7486 72.6578 25.6824C72.6722 25.6852 72.6837 25.691 72.6981 25.6939C72.6837 25.7917 72.6837 25.8954 72.6521 25.9875C72.4592 26.569 72.2663 27.1505 72.0619 27.7262C71.9813 27.9565 71.8403 28.1465 71.6301 28.2876C71.561 28.3336 71.5035 28.4056 71.4574 28.4747C71.4315 28.515 71.4229 28.5985 71.4459 28.6244C71.5725 28.7597 71.5207 28.8978 71.4545 29.0216C71.3768 29.1742 71.276 29.3152 71.1782 29.4563C71.0371 29.6607 70.8817 29.8593 70.7435 30.0637C70.6542 30.199 70.588 30.3429 70.5996 30.5185C70.6053 30.5991 70.5506 30.7143 70.4844 30.7603C70.09 31.0396 69.8828 31.4512 69.6813 31.8658C69.5604 32.1133 69.3963 32.3148 69.1832 32.4875C68.9673 32.6603 68.7543 32.8416 68.5499 33.0287C68.3974 33.1698 68.2448 33.3166 68.1728 33.5555C68.2563 33.5555 68.3225 33.5555 68.4463 33.5555C68.3168 33.688 68.2275 33.7945 68.1239 33.8837C67.9051 34.0679 67.6633 34.232 67.456 34.4278C67.3121 34.5631 67.1883 34.7272 67.0876 34.897C67.0098 35.0294 66.9379 35.1158 66.7738 35.064C66.6443 35.0208 66.5291 35.0496 66.4053 35.1474C66.4485 35.3633 66.3218 35.5073 66.1549 35.6339C66.0484 35.7145 65.9476 35.8038 65.844 35.8901C65.6281 36.0744 65.3892 36.2097 65.1013 36.2356C65.0437 36.2413 64.989 36.2644 64.9343 36.2759C64.7846 36.3104 64.7127 36.3997 64.6983 36.558C64.6724 36.8459 64.6407 36.8718 64.3643 36.9293C64.2981 36.9437 64.2348 36.961 64.1657 36.9696C64.0189 36.9869 63.9153 37.0618 63.8577 37.1942C63.7627 37.4245 63.5727 37.5166 63.3453 37.5598C63.1092 37.603 62.8761 37.6519 62.64 37.7037C62.4471 37.7469 62.2773 37.8131 62.1909 38.0204C62.1679 38.0751 62.0758 38.1298 62.0153 38.1298C61.6296 38.1298 61.2755 38.265 60.9416 38.4205C60.2133 38.7602 59.4504 38.9646 58.6674 39.1171C58.4026 39.169 58.1407 39.2179 57.8758 39.2611C57.8067 39.2726 57.7319 39.264 57.6455 39.2236C57.706 39.1862 57.7607 39.1373 57.824 39.1171C58.1522 39.0106 58.4803 38.9099 58.8114 38.8149C60.078 38.4522 61.2899 37.9484 62.4702 37.3698C62.8818 37.1654 63.2791 36.9322 63.6792 36.7077C63.7829 36.6501 63.8778 36.5695 63.9642 36.4745C63.7483 36.4601 63.6101 36.6587 63.3971 36.6789C63.4029 36.6127 63.4057 36.558 63.4115 36.4745C63.2676 36.535 63.138 36.5925 63.0085 36.6472C62.8271 36.7221 62.9077 36.8948 62.8703 37.0301C62.8243 37.0445 62.7782 37.0733 62.7379 37.0704C62.404 37.0359 62.119 37.1712 61.8397 37.3237C61.4108 37.5569 60.9848 37.8016 60.5559 38.0319C60.3025 38.1701 60.0463 38.3025 59.7498 38.3226C59.7038 38.3255 59.6577 38.3226 59.5944 38.3226C59.6145 38.1787 59.7297 38.1528 59.8103 38.1096C60.1586 37.9282 60.5242 37.7728 60.8581 37.5713C61.9866 36.8862 63.1639 36.2701 64.1542 35.3749C64.3442 35.2021 64.5745 35.0726 64.7846 34.9229C64.9257 34.8222 65.0696 34.7272 65.2049 34.6206C65.274 34.5659 65.3229 34.4882 65.3604 34.3932C65.0264 34.5084 64.776 34.7588 64.4449 34.8855C64.491 34.8308 64.5284 34.7732 64.5802 34.7272C64.7616 34.5688 64.9401 34.4076 65.1301 34.2637C66.1837 33.4605 67.0329 32.4559 67.8821 31.4541C68.0894 31.2094 68.2506 30.9273 68.4348 30.6625C68.4146 30.6452 68.3945 30.6308 68.3743 30.6135C68.3139 30.6855 68.2448 30.7546 68.1901 30.8323C67.9972 31.0943 67.8245 31.3764 67.6144 31.6211C67.41 31.86 67.1826 32.0845 66.935 32.2774C66.722 32.4444 66.5233 32.6171 66.365 32.8387C66.224 33.0345 66.0887 33.2187 65.8094 33.2504C65.7001 33.2619 65.6079 33.4116 65.5101 33.5008C65.2942 33.7023 65.084 33.9125 64.8595 34.1025C64.7904 34.1629 64.6781 34.1716 64.586 34.2032C64.5716 34.1831 64.5543 34.1629 64.5399 34.1428C64.6205 34.0363 64.6983 33.9269 64.7789 33.8204C64.7702 33.8089 64.7616 33.7973 64.753 33.7858C64.704 33.8204 64.6522 33.8492 64.609 33.8895C63.2244 35.1791 61.5576 35.9995 59.8563 36.7624C59.6404 36.8603 59.4217 36.9552 59.2058 37.0531C59.1914 36.9984 59.1798 36.9812 59.1683 36.9639ZM41.3609 9.84676C41.8646 9.47253 42.2072 8.99179 42.3454 8.35561C42.1698 8.43909 42.1784 8.43909 42.1582 8.58302C42.1496 8.65499 42.1237 8.73271 42.0863 8.79316C41.9769 8.97164 41.856 9.14436 41.738 9.3142C41.6142 9.49268 41.4846 9.6654 41.358 9.841C41.1018 10.054 41.0528 10.1548 41.1248 10.3707C41.2083 10.1807 41.286 10.0137 41.3609 9.84676ZM54.099 1.73753C54.2055 1.76344 54.2573 1.78647 54.3091 1.78934C54.6258 1.80662 54.9424 1.84404 55.2562 1.82677C55.6218 1.80662 55.9327 1.89586 56.2177 2.12039C56.5459 2.37659 56.9258 2.43705 57.3317 2.39675C57.5016 2.37947 57.6743 2.39099 57.847 2.39962C58.2587 2.42265 58.6214 2.60689 58.987 2.77385C59.3008 2.91491 59.6174 3.0243 59.9686 3.0099C58.1435 2.07433 56.2666 1.38633 54.099 1.73753ZM60.3831 3.08187C60.481 3.34383 60.6739 3.47049 60.9157 3.54246C61.0078 3.57125 61.1028 3.60003 61.1777 3.65761C61.6066 3.99153 62.1564 4.13834 62.5421 4.54712C62.6371 4.64787 62.7811 4.70832 62.9135 4.76014C63.1841 4.86953 63.4201 5.02786 63.636 5.21785C63.7656 5.33012 63.9009 5.43663 64.0362 5.54314C64.0794 5.57768 64.1341 5.59783 64.183 5.62374C64.1254 5.4942 64.0506 5.39345 63.9671 5.30421C63.1841 4.46363 62.26 3.80154 61.2784 3.21717C61.1172 3.11929 60.9301 3.0646 60.7516 2.99551C60.6134 2.94369 60.4839 2.94945 60.3831 3.08187ZM38.344 13.0997C38.629 12.8435 38.8766 12.1439 38.8247 11.8503C38.8075 11.7467 38.7585 11.6661 38.5772 11.6171C38.7931 11.882 38.6463 12.0777 38.5772 12.2821C38.5167 12.4635 38.4476 12.642 38.3901 12.8233C38.367 12.8953 38.3642 12.9701 38.344 13.0997ZM48.4366 2.66446C47.907 2.83718 47.4809 3.1855 47.0261 3.48201C47.6047 3.39852 47.9674 2.93794 48.4366 2.66446ZM40.9866 9.80934C40.6297 10.221 40.4627 10.7391 40.2267 11.2199C40.5635 10.7967 40.811 10.3246 40.9866 9.80934ZM62.594 6.5737C62.7293 6.81263 63.4144 7.44594 63.6504 7.54958C63.2244 6.94505 62.8473 6.59673 62.594 6.5737ZM62.712 30.3113C62.4846 30.3775 62.427 30.4034 62.3234 30.6222C62.1823 30.9187 61.9635 31.1374 61.716 31.339C61.6354 31.4052 61.5634 31.4858 61.4857 31.5606C61.5029 31.5779 61.5202 31.5923 61.5404 31.6095C61.9952 31.2324 62.3867 30.8035 62.712 30.3113ZM51.5945 4.08077C51.6032 4.10092 51.6089 4.12107 51.6176 4.1441C51.986 4.06926 52.3545 3.99441 52.7431 3.91381C52.6366 3.767 52.5272 3.73821 52.3948 3.78715C52.1271 3.88214 51.8594 3.98002 51.5945 4.08077ZM37.1091 20.9124C37.0371 21.1859 37.1234 21.563 37.2875 21.7789C37.3653 21.4651 37.3048 21.1542 37.1091 20.9124ZM39.9474 15.8344C39.8208 15.9927 39.7747 16.1252 39.7776 16.2691C39.7805 16.4044 39.8841 16.4476 39.9935 16.4562C40.1144 16.4648 40.1662 16.3957 40.1432 16.2633C40.0942 16.2547 40.0424 16.2461 39.9733 16.2345C39.9676 16.1194 39.9589 16.0042 39.9474 15.8344ZM36.4844 11.0961C36.6024 11.027 36.7924 11.0616 36.8126 10.8716C36.8269 10.7449 36.7809 10.6499 36.6341 10.6182C36.4901 10.7449 36.4901 10.9147 36.4844 11.0961ZM40.6815 22.5331C40.7391 22.8641 40.8715 23.0915 41.0644 23.1981C41.0154 22.9303 40.8772 22.7317 40.6815 22.5331ZM64.0247 30.5934C63.8232 30.6884 63.6447 30.8122 63.5065 31.054C63.7944 30.9791 63.9239 30.8035 64.0247 30.5934ZM36.8989 14.6225C37.0285 14.4785 37.0947 14.3145 37.0889 14.0899C36.9363 14.2598 36.8586 14.4181 36.8989 14.6225ZM42.3626 10.1289C42.4835 9.94751 42.6044 9.76903 42.7282 9.58768C42.5066 9.70858 42.4001 9.8957 42.3626 10.1289ZM34.6593 26.2235C34.6392 25.904 34.5758 25.7716 34.3772 25.6305C34.4779 25.8407 34.5557 26.0048 34.6593 26.2235ZM62.9279 31.5059C63.1927 31.4196 63.2445 31.362 63.2877 31.1202C63.1495 31.2699 63.0373 31.3879 62.9279 31.5059ZM65.5273 6.7234C65.4381 6.53916 65.3287 6.43841 65.133 6.3722C65.297 6.63128 65.297 6.63128 65.5273 6.7234ZM41.7005 8.9371C41.7178 8.95149 41.738 8.96588 41.7552 8.98316C41.8416 8.86513 41.9308 8.7471 42.0172 8.62908C41.856 8.68665 41.7207 8.76725 41.7005 8.9371ZM64.3672 8.1138C64.3442 8.12531 64.324 8.13395 64.301 8.14546C64.3413 8.28652 64.3931 8.42181 64.5659 8.48515C64.4996 8.36136 64.4334 8.23758 64.3672 8.1138ZM37.2444 13.6552C37.276 13.661 37.3048 13.6639 37.3365 13.6696C37.3509 13.5631 37.3624 13.4595 37.3768 13.353C37.3509 13.3501 37.3278 13.3472 37.3019 13.3415C37.2818 13.4451 37.2645 13.5487 37.2444 13.6552ZM62.9941 32.6775C63.2273 32.6833 63.2273 32.6833 63.3424 32.4789C63.2129 32.5538 63.1323 32.5998 62.9941 32.6775ZM41.0039 10.5837C40.9895 10.5664 40.9722 10.5492 40.9578 10.5348C40.9003 10.5923 40.8427 10.6528 40.7506 10.7449C40.9607 10.7708 40.9751 10.6701 41.0039 10.5837ZM65.0639 33.449C65.084 33.4778 65.1042 33.5066 65.1243 33.5354C65.1963 33.4836 65.2682 33.4289 65.3431 33.3771C65.3316 33.3569 65.3201 33.3368 65.3057 33.3195C65.2251 33.3627 65.1445 33.4058 65.0639 33.449ZM40.3245 21.7558C40.3015 21.7702 40.2814 21.7875 40.2583 21.8019C40.3015 21.8652 40.3447 21.9314 40.4167 22.038C40.4598 21.8624 40.4339 21.7875 40.3245 21.7558ZM64.7616 29.8737C64.7414 29.8564 64.7213 29.8392 64.7012 29.819C64.6263 29.8967 64.5198 29.9543 64.5112 30.1443C64.6177 30.032 64.6896 29.9543 64.7616 29.8737ZM46.7584 6.96808C46.6087 7.04869 46.6087 7.04869 46.6432 7.19838C46.6893 7.10338 46.7238 7.03429 46.7584 6.96808ZM64.9055 29.5772C64.9257 29.5887 64.943 29.6002 64.9631 29.6117C65.0005 29.5455 65.0408 29.4793 65.0783 29.4131C65.0639 29.4045 65.0495 29.3958 65.0351 29.3872C64.989 29.4505 64.9487 29.5139 64.9055 29.5772Z" fill="#2C2C2C"/>
<path d="M27.6583 0.0244141C30.2002 0.0244141 32.719 0.0244141 35.2839 0.0244141C30.632 12.1782 25.9916 24.3003 21.3483 36.4224C18.8697 36.4224 16.4142 36.4224 13.9328 36.4224C9.29237 24.3003 4.65194 12.1782 0 0.0272927C2.55914 0.0272927 5.07798 0.0272927 7.62561 0.0272927C10.9505 9.21027 14.2811 18.4048 17.6089 27.5992C17.6319 27.5992 17.652 27.5992 17.6751 27.5992C21.0028 18.4076 24.3306 9.21315 27.6583 0.0244141Z" fill="#2C2C2C"/>
<path d="M77.2522 0.0229492C79.5148 0.0229492 81.7544 0.0229492 84.0113 0.0229492C84.0113 12.1537 84.0113 24.2672 84.0113 36.3835C83.8098 36.444 77.5832 36.4583 77.2522 36.395C77.2522 24.2844 77.2522 12.171 77.2522 0.0229492Z" fill="#2C2C2C"/>
<path d="M79.7853 48.234C80.0875 48.7752 80.384 49.3077 80.7065 49.8892C80.4675 49.8921 80.2718 49.9065 80.0789 49.8892C80.0156 49.8835 79.9436 49.7942 79.9033 49.728C79.696 49.3711 79.5003 49.0112 79.2988 48.6514C79.2383 48.542 79.175 48.4355 79.1088 48.3261C78.844 48.3261 78.5877 48.3261 78.2912 48.3261C78.2912 48.8472 78.2912 49.3567 78.2912 49.8835C78.0725 49.8835 77.894 49.8835 77.6982 49.8835C77.6982 48.5334 77.6982 47.1977 77.6982 45.8447C77.7242 45.8332 77.7587 45.8102 77.7932 45.8102C78.32 45.8131 78.8468 45.7987 79.3736 45.8275C79.9724 45.8591 80.4359 46.2391 80.5395 46.763C80.6518 47.3244 80.4877 47.8195 79.9724 48.1189C79.9148 48.1534 79.8601 48.188 79.7853 48.234ZM78.3056 46.3427C78.3056 46.8379 78.3056 47.3013 78.3056 47.7792C78.6568 47.7792 78.9936 47.808 79.3247 47.7706C79.768 47.7216 79.9522 47.4568 79.9666 47.0566C79.9781 46.6594 79.6989 46.3686 79.2873 46.3456C78.9735 46.3283 78.6568 46.3427 78.3056 46.3427Z" fill="#2C2C2C"/>
<path d="M101.816 48.5679C102 48.5334 102.173 48.4988 102.348 48.4643C102.403 48.614 102.441 48.7435 102.495 48.8644C102.743 49.4171 103.428 49.6388 103.955 49.3394C104.197 49.2041 104.303 48.994 104.289 48.7176C104.274 48.4528 104.13 48.2858 103.894 48.2052C103.696 48.139 103.486 48.1016 103.281 48.0641C102.898 47.9979 102.533 47.8972 102.245 47.6122C101.802 47.1689 101.83 46.4607 102.308 46.0577C102.792 45.6489 103.699 45.5914 104.234 45.9311C104.548 46.1326 104.741 46.455 104.801 46.9184C104.715 46.9386 104.628 46.9616 104.539 46.9818C104.456 46.999 104.372 47.0134 104.274 47.0307C104.24 46.9415 104.211 46.8637 104.176 46.786C103.949 46.2592 103.27 46.0663 102.795 46.3945C102.455 46.6277 102.461 47.1055 102.809 47.3416C103.013 47.4798 103.25 47.5143 103.488 47.5575C103.733 47.6007 103.984 47.641 104.211 47.736C105.19 48.1447 105.014 49.2214 104.473 49.6618C103.75 50.2462 102.147 50.1397 101.836 48.7608C101.819 48.7061 101.822 48.6485 101.816 48.5679Z" fill="#2C2C2C"/>
<path d="M43.5688 48.4984C43.753 48.5416 43.9114 48.5762 44.0639 48.6107C44.061 49.031 43.7559 49.5031 43.3385 49.7535C42.639 50.1709 41.6228 50.0385 41.0557 49.4542C40.267 48.6424 40.29 47.013 41.1018 46.2243C41.6862 45.6572 42.6994 45.5392 43.3961 45.9652C43.7761 46.1984 43.9948 46.5409 44.0841 47.0044C43.8826 47.0418 43.707 47.0735 43.5199 47.108C43.4882 47.0447 43.4565 46.9958 43.4393 46.944C43.114 46.0487 41.9337 46.0545 41.4415 46.7022C41.0039 47.2808 41.0097 48.4293 41.4501 49.0108C41.9107 49.6154 43.0996 49.6816 43.4565 48.7546C43.4911 48.6769 43.5256 48.6021 43.5688 48.4984Z" fill="#2C2C2C"/>
<path d="M19.1174 48.398C19.1174 48.6772 19.1174 48.9133 19.1174 49.1522C19.1174 49.3882 19.1174 49.6243 19.1174 49.8805C18.9044 49.8805 18.7259 49.8805 18.5503 49.8805C18.4898 49.6819 18.4668 46.2965 18.5244 45.8503C18.5388 45.8388 18.5532 45.8186 18.5676 45.8186C19.1231 45.8186 19.6816 45.7812 20.2314 45.8359C21.0633 45.9165 21.5498 46.5326 21.3483 47.4595C21.2303 47.9978 20.8273 48.2655 20.3063 48.3548C20.1105 48.3893 19.9061 48.3893 19.7075 48.398C19.5261 48.4037 19.3448 48.398 19.1174 48.398ZM19.1346 47.8453C19.4657 47.8453 19.7823 47.8596 20.0932 47.8424C20.502 47.8193 20.764 47.5401 20.787 47.1371C20.8071 46.7341 20.5797 46.4117 20.1738 46.3627C19.837 46.3224 19.4916 46.3541 19.1346 46.3541C19.1346 46.8492 19.1346 47.3242 19.1346 47.8453Z" fill="#2C2C2C"/>
<path d="M92.5581 46.3482C91.8932 46.3482 91.2541 46.3482 90.6007 46.3482C90.6007 46.7598 90.6007 47.1456 90.6007 47.563C91.2052 47.563 91.7953 47.563 92.4027 47.563C92.4142 47.6637 92.4228 47.7357 92.4286 47.8077C92.4315 47.8825 92.4286 47.9602 92.4286 48.0696C92.1177 48.1128 91.8155 48.0869 91.5132 48.0898C91.2167 48.0955 90.9231 48.0898 90.6064 48.0898C90.6064 48.5216 90.6064 48.9275 90.6064 49.3679C91.2685 49.3679 91.9248 49.3679 92.6013 49.3679C92.6013 49.5579 92.6013 49.7134 92.6013 49.8832C91.732 49.8832 90.8828 49.8832 90.0393 49.8832C89.9789 49.6587 89.9587 46.4144 90.0077 45.8588C90.2005 45.7926 92.1782 45.7724 92.561 45.8358C92.5581 45.997 92.5581 46.161 92.5581 46.3482Z" fill="#2C2C2C"/>
<path d="M65.176 45.8218C65.3862 45.8218 65.5618 45.8218 65.769 45.8218C65.769 45.9427 65.769 46.0463 65.769 46.1471C65.769 46.8581 65.7662 47.5663 65.7719 48.2773C65.7719 48.45 65.7863 48.6256 65.8266 48.7897C65.9302 49.2157 66.2728 49.4575 66.7478 49.4547C67.2199 49.4547 67.5596 49.21 67.6661 48.7811C67.6978 48.6515 67.7093 48.5162 67.7093 48.3838C67.7121 47.644 67.7121 46.907 67.7121 46.1672C67.7121 46.0636 67.7121 45.9571 67.7121 45.8275C67.9137 45.8275 68.0979 45.8275 68.3023 45.8275C68.308 45.9254 68.3167 46.0175 68.3167 46.1125C68.3167 46.861 68.3195 47.6094 68.3167 48.3579C68.3167 48.5105 68.3138 48.6688 68.2821 48.8156C68.1036 49.6504 67.4905 49.9901 66.7046 49.993C66.5434 49.993 66.3793 49.9584 66.2239 49.9153C65.6193 49.7512 65.294 49.3395 65.199 48.7321C65.1789 48.6083 65.1818 48.4846 65.1789 48.3579C65.176 47.6181 65.1789 46.8811 65.1789 46.1413C65.176 46.0434 65.176 45.9427 65.176 45.8218Z" fill="#2C2C2C"/>
<path d="M54.8329 46.3311C54.8329 47.5344 54.8329 48.6916 54.8329 49.8747C54.6372 49.8747 54.4616 49.8747 54.2514 49.8747C54.2428 49.774 54.2284 49.6617 54.2284 49.5523C54.2255 48.5937 54.2284 47.6351 54.2284 46.6765C54.2284 46.5729 54.2284 46.4693 54.2284 46.3397C53.7851 46.3397 53.3763 46.3397 52.9531 46.3397C52.9531 46.1641 52.9531 46.0144 52.9531 45.8619C53.1431 45.7928 55.6677 45.7726 56.0794 45.8388C56.0794 45.9914 56.0794 46.1497 56.0794 46.3311C55.6706 46.3311 55.2733 46.3311 54.8329 46.3311Z" fill="#2C2C2C"/>
<path d="M31.199 49.8832C30.9974 49.8832 30.8218 49.8832 30.6434 49.8832C30.5858 49.673 30.5714 46.1927 30.6261 45.8242C30.8075 45.8242 30.9946 45.8242 31.1961 45.8242C31.199 47.1743 31.199 48.5129 31.199 49.8832Z" fill="#2C2C2C"/>
<path d="M40.3359 8.36134C40.3446 7.91803 40.3503 7.91227 40.7332 7.86621C40.6008 8.0303 40.4885 8.17135 40.3359 8.36134Z" fill="#2C2C2C"/>
</svg>
