<svg width="122" height="50" viewBox="0 0 122 50" fill="none" xmlns="http://www.w3.org/2000/svg">
<g id="Logo-white-menu">
<path d="M27.6583 0.024641C24.3306 9.21337 21.0028 18.4079 17.6751 27.5995C17.652 27.5995 17.6319 27.5995 17.6089 27.5995C14.2782 18.405 10.9505 9.21049 7.62561 0.0275197C5.07798 0.0275197 2.55914 0.0275197 0 0.0275197C4.65194 12.1784 9.29237 24.3005 13.9328 36.4226C16.4142 36.4226 18.8697 36.4226 21.3483 36.4226C25.9916 24.3005 30.632 12.1784 35.2839 0.024641C32.719 0.024641 30.2002 0.024641 27.6583 0.024641Z" fill="white"/>
<path d="M77.2522 0.0239606C77.2522 12.1691 77.2522 24.2854 77.2522 36.3931C77.5832 36.4565 83.8069 36.4421 84.0113 36.3816C84.0113 24.2682 84.0113 12.1547 84.0113 0.0210819C81.7544 0.0239606 79.5148 0.0239606 77.2522 0.0239606Z" fill="white"/>
<path d="M101.816 48.5678C101.822 48.6484 101.819 48.706 101.83 48.7607C102.141 50.1396 103.745 50.2461 104.467 49.6617C105.011 49.2213 105.184 48.1446 104.205 47.7359C103.978 47.6409 103.727 47.6006 103.483 47.5574C103.244 47.5142 103.008 47.4797 102.803 47.3415C102.455 47.1055 102.449 46.6305 102.789 46.3944C103.264 46.0663 103.943 46.2591 104.171 46.7859C104.205 46.8636 104.234 46.9414 104.268 47.0306C104.366 47.0133 104.45 46.9989 104.533 46.9817C104.623 46.9615 104.712 46.9385 104.795 46.9183C104.735 46.4578 104.542 46.1325 104.228 45.931C103.693 45.5884 102.786 45.6489 102.302 46.0576C101.825 46.4606 101.796 47.1688 102.239 47.6121C102.527 47.9 102.892 47.9978 103.275 48.064C103.483 48.1015 103.69 48.1389 103.888 48.2051C104.124 48.2828 104.268 48.4527 104.283 48.7175C104.297 48.9939 104.191 49.2011 103.949 49.3393C103.422 49.6387 102.737 49.4141 102.489 48.8643C102.435 48.7434 102.397 48.6139 102.343 48.4642C102.173 48.4987 102 48.5333 101.816 48.5678Z" fill="white"/>
<path d="M43.5688 48.4987C43.5256 48.6023 43.4881 48.6801 43.4594 48.7578C43.1024 49.6818 41.9106 49.6185 41.4529 49.014C41.0125 48.4354 41.0038 47.2839 41.4443 46.7053C41.9365 46.0576 43.1168 46.0519 43.4421 46.9471C43.4622 46.9989 43.491 47.045 43.5227 47.1112C43.7098 47.0767 43.8854 47.045 44.0869 47.0076C43.9948 46.5441 43.7789 46.2016 43.3989 45.9684C42.7023 45.5423 41.6919 45.6575 41.1046 46.2275C40.2928 47.0162 40.2669 48.6455 41.0585 49.4573C41.6285 50.0417 42.6418 50.1741 43.3413 49.7567C43.7587 49.5062 44.0639 49.0341 44.0668 48.6139C43.9113 48.5764 43.753 48.539 43.5688 48.4987Z" fill="white"/>
<path d="M92.5581 46.3484C92.5581 46.1612 92.5581 45.9972 92.5581 45.8359C92.1752 45.7726 90.1976 45.7928 90.0047 45.859C89.9558 46.4146 89.9759 49.6588 90.0364 49.8834C90.8827 49.8834 91.729 49.8834 92.5984 49.8834C92.5984 49.7135 92.5984 49.5581 92.5984 49.3681C91.9219 49.3681 91.2656 49.3681 90.6035 49.3681C90.6035 48.9277 90.6035 48.5218 90.6035 48.09C90.9201 48.09 91.2137 48.0928 91.5103 48.09C91.8125 48.0842 92.1148 48.113 92.4257 48.0698C92.4257 47.9604 92.4286 47.8827 92.4257 47.8078C92.4228 47.7359 92.4113 47.661 92.3998 47.5632C91.7924 47.5632 91.2022 47.5632 90.5977 47.5632C90.5977 47.1458 90.5977 46.76 90.5977 46.3484C91.254 46.3484 91.8931 46.3484 92.5581 46.3484Z" fill="white"/>
<path d="M65.1761 45.8216C65.1761 45.9396 65.1761 46.0433 65.1761 46.1469C65.1761 46.8867 65.1761 47.6237 65.1761 48.3635C65.1761 48.4873 65.1761 48.6139 65.1963 48.7377C65.2913 49.3422 65.6165 49.7568 66.221 49.9208C66.3765 49.964 66.5405 49.9986 66.7017 49.9986C67.4847 49.9957 68.1007 49.6531 68.2792 48.8212C68.3108 48.6715 68.3108 48.5161 68.3137 48.3635C68.3166 47.615 68.3166 46.8666 68.3137 46.1181C68.3137 46.026 68.3051 45.931 68.2993 45.8331C68.0949 45.8331 67.9107 45.8331 67.7092 45.8331C67.7092 45.9627 67.7092 46.0692 67.7092 46.1728C67.7092 46.9126 67.7121 47.6496 67.7063 48.3894C67.7063 48.5218 67.6948 48.66 67.6632 48.7866C67.5595 49.2127 67.217 49.4603 66.7449 49.4603C66.27 49.4603 65.9274 49.2213 65.8238 48.7953C65.7835 48.6283 65.772 48.4527 65.7691 48.2829C65.7633 47.5718 65.7662 46.8637 65.7662 46.1527C65.7662 46.049 65.7662 45.9454 65.7662 45.8274C65.5618 45.8216 65.3862 45.8216 65.1761 45.8216Z" fill="white"/>
<path d="M54.833 46.3311C55.2735 46.3311 55.6736 46.3311 56.0795 46.3311C56.0795 46.1497 56.0795 45.9914 56.0795 45.8388C55.6678 45.7726 53.1404 45.7957 52.9532 45.8619C52.9532 46.0116 52.9532 46.1613 52.9532 46.3397C53.3764 46.3397 53.7852 46.3397 54.2285 46.3397C54.2285 46.4693 54.2285 46.5729 54.2285 46.6765C54.2285 47.6351 54.2285 48.5937 54.2285 49.5523C54.2285 49.6617 54.2429 49.7711 54.2515 49.8747C54.4617 49.8747 54.6373 49.8747 54.833 49.8747C54.833 48.6887 54.833 47.5315 54.833 46.3311Z" fill="white"/>
<path d="M31.1991 49.8834C31.1991 48.5102 31.1991 47.1745 31.1991 45.8244C30.9947 45.8244 30.8104 45.8244 30.6291 45.8244C30.5715 46.1929 30.5859 49.6732 30.6464 49.8834C30.8191 49.8834 30.9976 49.8834 31.1991 49.8834Z" fill="white"/>
<path d="M40.336 8.36132C40.4886 8.17133 40.6009 8.03315 40.7333 7.86619C40.3533 7.91225 40.3475 7.91801 40.336 8.36132Z" fill="white"/>
<path d="M91.7031 36.4342C91.7031 24.2747 91.7031 12.1612 91.7031 0.0276168C91.801 0.0189808 91.8845 0.00746606 91.9679 0.00746606C95.9607 0.00746606 99.9506 -0.0126847 103.943 0.0132234C106.54 0.0304955 109.073 0.453661 111.5 1.42953C113.489 2.2298 115.268 3.35825 116.794 4.87243C118.533 6.59964 119.765 8.6435 120.574 10.9522C121.146 12.5902 121.48 14.2771 121.627 16.0043C121.711 17.0089 121.751 18.0136 121.716 19.0211C121.616 21.8854 121.097 24.6547 119.848 27.2599C118.507 30.0522 116.517 32.2544 113.863 33.8521C111.96 34.9978 109.894 35.7088 107.712 36.0946C106.338 36.3364 104.954 36.4371 103.56 36.4371C99.7318 36.4314 95.9031 36.4342 92.0745 36.4342C91.9593 36.4342 91.847 36.4342 91.7031 36.4342ZM98.4939 30.3775C98.6408 30.3775 98.753 30.3775 98.8653 30.3775C100.564 30.3775 102.262 30.3804 103.961 30.3775C104.98 30.3746 105.99 30.2854 106.983 30.0522C110.072 29.3239 112.329 27.5593 113.679 24.6691C114.517 22.8757 114.836 20.9642 114.92 19.0067C114.96 18.0654 114.926 17.1298 114.828 16.1914C114.687 14.8096 114.393 13.4653 113.855 12.1843C112.741 9.52725 110.855 7.6849 108.123 6.7263C106.767 6.25132 105.365 6.0786 103.938 6.07284C102.219 6.0642 100.503 6.06996 98.7847 6.07284C98.6926 6.07284 98.5976 6.08147 98.4911 6.08723C98.4939 14.1821 98.4939 22.2568 98.4939 30.3775Z" fill="white"/>
<path d="M59.1683 36.9639C59.3525 36.8632 59.5368 36.7624 59.7181 36.6588C60.4925 36.2155 61.264 35.7693 62.0383 35.326C62.2283 35.2166 62.427 35.1187 62.6141 35.0035C62.7033 34.9488 62.7839 34.8769 62.8501 34.7963C62.8789 34.7617 62.8616 34.6898 62.8703 34.5717C62.7638 34.6495 62.6889 34.6754 62.6688 34.7243C62.5997 34.897 62.4471 34.946 62.3032 35.0208C61.8512 35.2511 61.405 35.4929 60.956 35.7261C60.7516 35.8297 60.5443 35.9276 60.3342 36.0168C59.9398 36.1867 59.5397 36.3536 59.1424 36.5177C59.0474 36.558 58.9524 36.5897 58.8459 36.6012C59.0359 36.3911 59.2978 36.3076 59.5397 36.1896C59.7815 36.0715 60.0578 36.014 60.2478 35.8124C60.2392 35.7923 60.2305 35.7721 60.2219 35.752C60.0895 35.7952 59.9513 35.8268 59.8275 35.8873C59.5684 36.014 59.318 36.155 59.0618 36.2874C58.9869 36.3249 58.9006 36.3795 58.8257 36.3738C58.5523 36.3536 58.322 36.4717 58.0888 36.5811C57.8902 36.6732 57.6915 36.7682 57.4872 36.8545C57.3231 36.9236 57.1561 36.9265 56.9546 36.8315C57.2079 36.6617 57.4843 36.6933 57.7117 36.5839C57.942 36.4745 58.1608 36.3392 58.4458 36.1809C58.3018 36.1493 58.227 36.132 58.1493 36.1176C58.2068 35.9852 58.3249 35.9391 58.4515 35.9276C58.5782 35.9132 58.6674 35.8528 58.7307 35.7491C58.8488 35.5534 59.0301 35.4267 59.2259 35.3202C59.4533 35.1964 59.6836 35.0813 59.9168 34.9661C60.9099 34.4767 61.8311 33.8722 62.6659 33.1439C62.7551 33.0662 62.8357 32.977 62.8991 32.8733C62.7292 32.8532 62.6285 32.9597 62.522 33.046C62.2859 33.2418 62.0614 33.4548 61.8196 33.639C61.6929 33.734 61.5346 33.7916 61.3906 33.8607C61.1834 33.9586 60.9761 34.0536 60.7689 34.1515C60.6652 34.2004 60.5673 34.2781 60.4608 34.2983C60.0463 34.376 59.6865 34.5717 59.3324 34.7819C59.2748 34.8164 59.2144 34.8423 59.1424 34.8769C59.105 34.8164 59.0733 34.7646 59.0388 34.7042C58.7998 34.756 58.5724 34.8078 58.3421 34.8596C58.3364 34.8452 58.3306 34.8308 58.3249 34.8164C58.3853 34.779 58.4429 34.7358 58.5033 34.7013C58.9294 34.4595 59.3641 34.2349 59.7786 33.9758C60.0693 33.7945 60.3313 33.5671 60.6105 33.3656C60.9128 33.1439 61.215 32.9251 61.5202 32.7092C61.7937 32.5135 62.0729 32.3292 62.3435 32.1306C62.4471 32.0529 62.5335 31.9493 62.6256 31.86C62.6141 31.8428 62.6026 31.8255 62.5911 31.8082C62.5306 31.837 62.4615 31.8571 62.4068 31.8946C62.0067 32.1594 61.6152 32.4386 61.2064 32.6862C60.7976 32.9338 60.3658 33.1439 59.9484 33.3771C59.7901 33.4663 59.6347 33.5671 59.5051 33.6909C59.295 33.8953 59.0503 34.0392 58.7826 34.1486C58.5695 34.2349 58.3594 34.3299 58.1464 34.4134C58.0658 34.4451 57.9765 34.4537 57.8556 34.4796C57.9593 34.2234 58.1896 34.2349 58.3335 34.1255C58.3709 33.8319 58.3709 33.8377 58.6962 33.7743C58.7739 33.7599 58.866 33.7139 58.9063 33.6506C59.0388 33.4491 59.2345 33.331 59.4274 33.2072C59.9312 32.8906 60.4378 32.5826 60.9387 32.263C61.074 32.1767 61.2179 32.0903 61.2669 31.8744C61.1891 31.8917 61.1229 31.8917 61.0769 31.9205C60.9617 31.9896 60.8552 32.0702 60.7487 32.1537C60.3457 32.4703 59.9196 32.738 59.39 32.7927C59.151 32.8186 58.9726 32.9482 58.8171 33.1382C58.6473 33.3425 58.4486 33.5268 58.2529 33.711C58.132 33.8233 58.0571 33.829 57.8326 33.8146C57.9996 33.6707 58.1493 33.5383 58.3306 33.38C58.1665 33.3224 58.083 33.3886 57.9996 33.4433C57.8614 33.5325 57.7318 33.6304 57.5966 33.7197C57.4929 33.7859 57.3835 33.8492 57.2223 33.7657C57.2741 33.711 57.3087 33.6563 57.3576 33.6275C57.5246 33.5325 57.6915 33.4375 57.8671 33.3598C58.4285 33.118 58.9179 32.7668 59.3784 32.3724C59.6116 32.1738 59.8419 31.9694 60.0693 31.765C60.2824 31.5722 60.4954 31.3822 60.766 31.2641C60.8638 31.221 60.9444 31.1375 61.0135 31.0425C60.6911 31.0857 60.4608 31.3102 60.1845 31.4714C60.2852 31.2958 60.3831 31.1922 60.6192 31.054C60.8379 30.9273 61.0366 30.7834 61.192 30.5819C61.2381 30.5214 61.3014 30.4754 61.3676 30.4351C61.9923 30.0407 62.5018 29.5225 62.9768 28.967C63.7771 28.0343 64.5025 27.044 65.1387 25.9904C65.8641 24.7814 66.2671 23.4601 66.5291 22.084C66.5924 21.7472 66.6989 21.4162 66.7651 21.0794C66.8342 20.7339 66.8947 20.3827 66.9263 20.0315C67.0789 18.2065 66.8688 16.4102 66.437 14.6427C66.2009 13.6754 65.8958 12.7255 65.5993 11.7755C65.4525 11.312 65.2653 10.8572 64.9113 10.4945C64.8249 10.4053 64.7788 10.2987 64.8105 10.1807C64.8479 10.0397 64.7932 9.93027 64.704 9.84103C64.2233 9.34878 63.8749 8.76441 63.5381 8.1714C63.4431 8.00156 63.3194 7.87202 63.1035 7.82884C62.9941 7.80581 62.8904 7.70506 62.8098 7.61582C62.6717 7.45749 62.5565 7.27901 62.4241 7.11493C62.3262 6.9969 62.2255 6.87888 62.1046 6.78676C62.0383 6.73782 61.9146 6.70616 61.8455 6.73494C61.6987 6.79539 61.6008 6.73206 61.5058 6.65434C61.2956 6.47298 61.0855 6.28875 60.8869 6.09588C60.6163 5.83104 60.3083 5.62953 59.9571 5.4856C58.2961 4.80047 56.566 4.4723 54.7726 4.46367C53.6528 4.45791 52.5416 4.53276 51.4822 4.90123C50.6705 5.18334 49.8846 5.54893 49.0987 5.90013C48.664 6.09588 48.2236 6.29163 47.8494 6.60252C47.8062 6.63707 47.74 6.68025 47.6968 6.67161C47.4665 6.6198 47.3456 6.76949 47.2074 6.90191C47.075 7.02857 46.9397 7.14947 46.7929 7.25886C46.7065 7.32507 46.5971 7.36249 46.4906 7.41719C46.4532 7.33659 46.4331 7.28765 46.387 7.18689C46.3697 7.23295 46.3496 7.25598 46.3496 7.28189C46.3409 7.54673 46.1884 7.69354 45.9638 7.80581C45.7537 7.90944 45.5896 8.07353 45.4658 8.27503C45.342 8.47942 45.1779 8.62911 44.9505 8.71259C44.7807 8.77592 44.654 8.87668 44.6108 9.06955C44.5993 9.12137 44.5274 9.18757 44.4784 9.19333C44.3172 9.2106 44.2481 9.32287 44.1848 9.4409C44.1186 9.56756 44.0639 9.70286 44.0034 9.8324C43.9545 9.93315 43.9027 10.0339 43.7789 10.1721C43.7386 10.0886 43.6983 10.0051 43.6609 9.92164C43.6379 9.93027 43.6148 9.93603 43.5889 9.94467C43.5429 10.0339 43.4882 10.1203 43.4536 10.2153C43.3644 10.4715 43.2377 10.7018 43.042 10.8975C42.8405 11.1019 42.7282 11.3523 42.734 11.6488C42.7368 11.7352 42.7426 11.8331 42.7052 11.905C42.5008 12.2937 42.4288 12.7427 42.1553 13.0939C41.9596 13.3444 41.8185 13.6092 41.8013 13.9259C41.7754 14.3778 41.6545 14.7924 41.3176 15.1551C41.2917 15.0428 41.2658 14.9363 41.2428 14.8355C41.4846 14.7031 41.4904 14.7031 41.522 14.4354C41.5537 14.1677 41.5595 13.9 41.5998 13.6351C41.6285 13.448 41.6631 13.2494 41.7523 13.0882C41.9538 12.7226 42.092 12.3368 42.2043 11.9396C42.3655 11.3696 42.6274 10.8543 42.9671 10.3707C43.6897 9.33727 44.4871 8.36715 45.4687 7.56688C46.0185 7.11781 46.6115 6.72343 47.1873 6.31178C47.2765 6.24845 47.383 6.20527 47.5385 6.12466C47.4866 6.25996 47.4607 6.32617 47.4348 6.40102C47.4694 6.40102 47.501 6.40965 47.5241 6.40102C47.8695 6.23405 48.215 6.06709 48.5546 5.89149C48.9951 5.6612 49.4326 5.42227 49.8702 5.18622C50.0285 5.09986 50.1897 5.01349 50.3423 4.91274C50.6676 4.69396 50.99 4.46942 51.3124 4.24489C51.2001 4.2161 51.0764 4.18444 50.9238 4.14413C50.8605 4.2161 50.8 4.32549 50.705 4.37443C50.6302 4.41185 50.5179 4.37443 50.3999 4.36867C50.207 4.54139 50.0976 4.55291 49.6744 4.42337C49.6313 4.29095 49.7176 4.19307 49.781 4.09232C49.8414 3.99732 49.9047 3.9052 50.0112 3.74976C49.8731 3.76703 49.8011 3.76127 49.7435 3.78718C49.5046 3.88793 49.2714 3.99732 49.0354 4.10383C48.8511 4.18731 48.6611 4.23913 48.4539 4.23913C48.3531 4.23913 48.238 4.29958 48.1516 4.36291C47.9962 4.47518 47.8638 4.61624 47.7141 4.73426C47.6306 4.80047 47.5298 4.84365 47.3945 4.9185C47.5241 4.56154 48.2553 4.01747 48.6439 3.9599C48.7101 3.68642 48.949 3.60582 49.1908 3.54249C49.4701 3.47052 49.7522 3.41871 50.0314 3.34674C50.1984 3.30356 50.3596 3.24599 50.5179 3.17978C50.5985 3.14523 50.6676 3.07902 50.728 2.99842C50.3624 2.89767 50.0832 3.15675 49.7032 3.22584C49.827 3.11645 49.9105 3.0416 50.04 2.92933C49.8328 2.96388 49.6888 2.98691 49.5132 3.01569C49.5794 2.76813 49.7838 2.73646 49.9393 2.65874C50.1062 2.57526 50.2847 2.51193 50.4574 2.43996C50.4546 2.41693 50.4546 2.39678 50.4517 2.37375C50.3855 2.37375 50.3135 2.35648 50.2559 2.37663C50.112 2.42556 49.9709 2.4889 49.8328 2.55511C49.6428 2.6501 49.4614 2.7451 49.234 2.72495C49.1448 2.71631 49.044 2.75949 48.9605 2.80267C48.6381 2.96963 48.3157 3.14236 48.0019 3.32371C47.3715 3.68642 46.7526 4.07217 46.1135 4.42049C45.4917 4.76017 44.9448 5.1747 44.4871 5.72453C43.9545 6.36647 43.3759 6.97099 42.8203 7.58991C42.7771 7.63597 42.7397 7.68778 42.7282 7.76551C43.422 7.13508 44.1128 6.50177 44.8296 5.84831C44.8095 5.96634 44.7951 6.05845 44.7778 6.15345C44.7922 6.16209 44.8066 6.17072 44.8181 6.17936C44.9563 5.99512 45.0945 5.81089 45.2442 5.60938C45.3276 5.75331 45.2729 5.86558 45.2067 5.96346C45.0196 6.23117 44.8239 6.49026 44.6281 6.75221C44.559 6.84721 44.4842 6.93933 44.4122 7.03145C44.4266 7.04584 44.4439 7.06023 44.4583 7.07751C44.5072 7.04584 44.5648 7.01993 44.608 6.97963C44.7346 6.8616 44.8498 6.73206 44.9793 6.61692C45.0484 6.55647 45.1348 6.49889 45.2211 6.4701C45.342 6.43268 45.4284 6.53919 45.3795 6.65722C45.3507 6.72631 45.3046 6.79252 45.2528 6.84721C45.1348 6.97387 45.0196 7.10341 44.8872 7.2128C44.7289 7.34522 44.6281 7.48916 44.6511 7.70506C44.6684 7.84899 44.5849 7.9152 44.4554 7.94111C44.4266 7.94686 44.3978 7.94974 44.369 7.95262C43.9603 8.02747 43.9315 8.06489 43.8912 8.49093C43.8854 8.55427 43.8595 8.6176 43.8394 8.6982C43.7386 8.67805 43.6494 8.66078 43.5256 8.63775C43.4997 8.79895 43.4767 8.94289 43.4536 9.10409C43.3845 9.06091 43.3212 9.02349 43.2205 8.96304C43.2262 9.0494 43.2233 9.09258 43.232 9.13576C43.2608 9.26818 43.2348 9.36893 43.0852 9.39196C42.9441 9.41499 42.9211 9.50999 42.9355 9.62513C42.9614 9.84103 42.8721 10.0109 42.7599 10.1865C42.5382 10.5319 42.3309 10.8889 42.115 11.2401C42.0402 11.3581 41.9596 11.4732 41.8646 11.6114C41.761 11.5135 41.689 11.4445 41.6055 11.3667C41.2486 11.7179 41.3896 12.2332 41.1737 12.6333C41.1075 12.6333 41.0442 12.6333 40.9521 12.6333C40.906 12.76 40.8542 12.9011 40.7937 13.0709C40.7505 13.045 40.716 13.0248 40.6699 12.9961C40.4943 13.235 40.8052 13.4595 40.693 13.71C40.6354 13.6812 40.5893 13.661 40.5289 13.6323C40.4022 14.0497 40.2669 14.4584 40.1633 14.873C40.123 15.0342 40.1345 15.2155 40.1489 15.3854C40.1863 15.7797 40.1777 16.1885 40.4656 16.5196C40.5145 16.5771 40.4943 16.7038 40.4886 16.7959C40.48 16.9398 40.4483 17.0809 40.4368 17.2248C40.4253 17.3774 40.4569 17.5098 40.5375 17.6566C40.6268 17.815 40.6469 18.0222 40.6527 18.2093C40.6613 18.5548 40.6268 18.9002 40.6296 19.2428C40.6325 19.5105 40.6412 19.7811 40.6872 20.0431C40.716 20.2071 40.788 20.3799 40.8887 20.5094C41.0614 20.7339 41.1046 20.9671 41.0614 21.2435C40.9089 21.2463 40.883 21.1312 40.8513 21.042C40.7304 20.6879 40.6095 20.3338 40.5116 19.974C40.4109 19.6055 40.3418 19.2284 40.2094 18.8484C40.1921 18.9233 40.1518 19.001 40.1633 19.0729C40.1978 19.3004 40.2554 19.522 40.2957 19.7466C40.3331 19.9538 40.3965 20.1611 40.3907 20.3655C40.3792 20.7656 40.454 21.1485 40.5778 21.5227C40.8168 22.2539 41.1133 22.962 41.5451 23.604C41.7149 23.8573 41.9308 24.079 42.1381 24.3035C42.3396 24.5223 42.5555 24.7238 42.5641 25.052C42.567 25.1153 42.6418 25.1786 42.6879 25.2391C42.8347 25.4262 42.9815 25.6104 43.1053 25.8177C42.9355 25.7486 42.8261 25.6162 42.7196 25.478C42.5267 25.2304 42.5267 25.2304 42.2043 25.3859C42.069 25.2276 41.9222 25.0548 41.7754 24.8821C41.7581 24.8994 41.7437 24.9138 41.7264 24.9311C42.4346 26.0681 43.4047 26.949 44.5159 27.6975C44.5015 27.7205 44.4871 27.7435 44.4698 27.7637C44.3403 27.7061 44.1906 27.6716 44.0869 27.5852C43.8048 27.352 43.4709 27.2254 43.1312 27.139C42.5612 26.9951 42.1266 26.6784 41.807 26.1948C41.499 25.7313 41.1967 25.265 40.8916 24.8015C40.834 24.7152 40.8024 24.528 40.6613 24.6144C40.5059 24.7094 40.6584 24.8303 40.716 24.9282C40.7793 25.0404 40.8628 25.1412 40.9664 25.2938C40.8427 25.2736 40.7822 25.265 40.7102 25.2535C40.7074 25.2851 40.6959 25.3168 40.7045 25.3341C40.8168 25.5125 40.9204 25.6968 41.0499 25.8609C41.2457 26.1084 41.4645 26.3387 41.666 26.5834C41.7351 26.6669 41.7897 26.7619 41.8272 26.8742C41.5998 26.8252 41.4155 26.7014 41.2831 26.5374C40.9837 26.1631 40.7045 25.7716 40.4339 25.3801C40.3475 25.2563 40.3101 25.1009 40.2497 24.9598C40.2353 24.9253 40.2237 24.8792 40.1978 24.8591C39.8812 24.6086 39.7718 24.2373 39.6106 23.8947C39.6048 23.8803 39.5818 23.8717 39.5473 23.8487C39.5357 24.0703 39.6048 24.2632 39.6739 24.4532C39.7833 24.7468 39.9416 25.0261 39.9359 25.3571C39.9359 25.4319 40.0222 25.5413 40.0942 25.573C40.2497 25.6392 40.3015 25.7544 40.3475 25.8954C40.4109 26.0854 40.4857 26.2725 40.5634 26.4596C40.5807 26.4999 40.6181 26.5287 40.6498 26.5661C40.8052 26.4769 40.6872 26.3301 40.7505 26.2092C40.9348 26.3445 41.001 26.546 41.0874 26.7331C41.2313 27.0354 41.3695 27.3405 41.522 27.6399C41.7466 28.0832 42.1093 28.4171 42.449 28.7683C42.4662 28.7856 42.4979 28.7885 42.544 28.8086C42.567 28.7338 42.5871 28.6676 42.6102 28.5956C42.639 28.6042 42.6793 28.6042 42.6908 28.6215C42.7455 28.7165 42.803 28.8144 42.8405 28.918C42.8664 28.9871 42.8577 29.0706 42.8808 29.1426C42.9355 29.3095 43.0852 29.3786 43.2118 29.2663C43.3586 29.1339 43.4939 29.1627 43.6321 29.2347C43.8969 29.37 44.156 29.5168 44.4122 29.6636C44.6857 29.8219 44.9534 29.9889 45.2269 30.1472C45.2989 30.1904 45.3823 30.2134 45.4773 30.2221C45.3075 29.9918 45.057 29.8478 44.8584 29.6578C45.0916 29.7125 45.3219 29.7557 45.5435 29.8277C45.6673 29.868 45.7825 29.9428 45.889 30.0206C46.0416 30.1328 46.1855 30.2595 46.3409 30.389C46.5396 30.2134 46.7353 30.2624 46.9397 30.3401C47.1297 30.4149 47.311 30.533 47.6018 30.5502C47.4838 30.3919 47.406 30.2854 47.3139 30.1645C47.455 30.0925 47.5586 30.1616 47.6536 30.2307C47.786 30.3257 47.9098 30.4351 48.0394 30.5301C48.1459 30.6107 48.2552 30.6913 48.4193 30.6452C48.4193 30.5877 48.4193 30.5272 48.4193 30.4639C48.4539 30.4639 48.4884 30.4552 48.5057 30.4667C48.5633 30.5013 48.6237 30.5358 48.664 30.5877C48.7648 30.7028 48.877 30.7373 49.0239 30.6855C49.2167 30.6164 49.3779 30.7201 49.5363 30.8064C49.9278 31.0252 50.2329 31.3447 50.538 31.6643C50.918 32.0644 51.2347 32.5049 51.4276 33.0288C51.4736 33.1526 51.5398 33.2677 51.606 33.4059C51.678 33.3656 51.7269 33.3368 51.7816 33.3051C51.8047 33.3339 51.8248 33.3541 51.8363 33.38C51.9687 33.6678 51.9774 33.9759 51.963 34.2839C51.9428 34.7617 51.8104 35.2079 51.5916 35.6311C51.511 35.7865 51.4132 35.9247 51.2376 35.9938C51.108 36.0427 51.0476 36.1464 51.0188 36.2759C50.9958 36.368 50.9727 36.463 50.9439 36.5523C50.9065 36.6789 50.8403 36.771 50.705 36.8171C50.4459 36.9035 50.2127 37.0244 50.0717 37.2806C50.0343 37.3468 49.9422 37.3986 49.8644 37.4245C49.5564 37.5195 49.2426 37.6001 48.9548 37.6807C48.8454 37.6145 48.8627 37.4677 48.7245 37.4907C48.5431 37.5195 48.3215 37.4101 48.1833 37.5943C48.0019 37.8333 47.7572 37.8937 47.4809 37.9225C46.4676 38.0319 45.509 37.888 44.654 37.295C44.0006 36.8401 43.3529 36.3795 42.7023 35.919C42.4288 35.7261 42.1611 35.5303 41.8416 35.4094C41.6775 35.3461 41.5192 35.1907 41.4213 35.0352C40.9377 34.2666 40.2698 33.6765 39.5703 33.1209C37.7251 31.6585 36.2339 29.8996 35.1227 27.827C34.4606 26.5921 33.9022 25.3082 33.5193 23.9552C33.4761 23.7997 33.4445 23.6414 33.3955 23.4284C33.5251 23.509 33.5999 23.555 33.7381 23.6414C33.6748 23.4831 33.6546 23.3622 33.5884 23.2845C33.2314 22.8584 33.171 22.3431 33.1508 21.825C33.1134 20.7915 33.1019 19.7552 33.0818 18.7189C33.0818 18.6728 33.0933 18.6239 33.1365 18.5692C33.1537 18.6239 33.1796 18.6757 33.1825 18.7304C33.2257 19.2745 33.2458 19.8214 33.3063 20.3655C33.4301 21.4421 33.5798 22.5158 33.882 23.5579C33.9281 23.7134 33.9885 23.8659 34.0519 24.0156C34.0807 24.0847 34.1181 24.1711 34.1757 24.2028C34.3772 24.3179 34.4117 24.5136 34.452 24.7123C34.547 25.1901 34.5643 25.2304 34.7514 25.4176C34.7226 25.2966 34.6938 25.1757 34.6593 25.0548C34.3541 23.9178 34.0173 22.7864 33.7554 21.6378C33.4905 20.4835 33.407 19.3061 33.5222 18.123C33.597 17.34 33.7122 16.5627 33.8043 15.7826C33.8216 15.6416 33.836 15.4948 33.8216 15.3537C33.8014 15.132 33.8446 14.9334 33.9598 14.7492C34.1872 14.3807 34.2908 13.9806 34.2966 13.5459C34.2994 13.3674 34.3455 13.1889 34.3772 12.9759C34.5355 13.0508 34.6161 13.0076 34.6622 12.8752C34.737 12.6564 34.8205 12.4434 34.8924 12.2246C34.9126 12.1641 34.9241 12.0835 34.9011 12.0288C34.8147 11.8532 34.8579 11.6863 34.9212 11.5279C35.2753 10.6384 35.6323 9.74892 35.9921 8.86228C36.0151 8.80471 36.0583 8.75865 36.1447 8.72123C36.1303 8.8191 36.1274 8.92274 36.1015 9.01773C36.0151 9.33151 35.9259 9.64528 35.8194 9.9533C35.7906 10.0339 35.6927 10.0886 35.6409 10.1634C35.5833 10.2469 35.5401 10.3362 35.497 10.4283C35.4912 10.4369 35.5632 10.4974 35.5689 10.4945C35.6467 10.434 35.7503 10.3793 35.7906 10.2959C35.9144 10.0483 36.0065 9.78346 36.1188 9.53014C36.2425 9.25091 36.375 8.97455 36.5103 8.6982C36.5506 8.6176 36.6139 8.55139 36.7204 8.49381C36.7262 8.55427 36.7463 8.61472 36.7377 8.67229C36.6887 9.02925 36.5909 9.37181 36.3778 9.66256C36.1591 9.96194 36.1245 10.27 36.2742 10.6212C36.4584 10.5089 36.5016 10.3045 36.5909 10.1347C36.6772 9.9677 36.7463 9.7921 36.8759 9.63377C36.8384 9.89285 36.8039 10.1519 36.7665 10.4081C36.778 10.411 36.7866 10.4139 36.7981 10.4168C36.824 10.3362 36.8528 10.2556 36.8787 10.1778C36.9046 10.1059 36.919 10.0397 37.0313 10.0627C37.0687 10.0713 37.1321 9.98785 37.1752 9.93891C37.2645 9.84103 37.348 9.74028 37.4314 9.6424C37.4545 9.65104 37.4746 9.6568 37.4976 9.66544C37.4861 9.74028 37.4861 9.818 37.4602 9.88709C37.2184 10.5521 36.9737 11.2199 36.7233 11.882C36.4728 12.547 36.2051 13.2033 36.0957 13.9086C36.0554 14.1706 36.0612 14.4383 36.0439 14.7031C36.0698 14.7118 36.0929 14.7204 36.1188 14.729C36.1562 14.6628 36.208 14.6024 36.231 14.5304C36.3519 14.1274 36.4556 13.7186 36.5851 13.3185C36.7262 12.8809 36.8787 12.4491 37.0457 12.0202C37.2443 11.5107 37.4689 11.0127 37.6704 10.506C37.846 10.0684 38.0561 9.65104 38.3325 9.2653C38.3641 9.21924 38.4044 9.18182 38.4649 9.15303C38.2432 9.87846 37.7884 10.5089 37.5955 11.2516C37.6617 11.1393 37.7308 11.0299 37.8114 10.9004C37.9151 11.1537 37.9151 11.1537 37.7135 11.9972C37.8431 11.7813 37.9726 11.5654 38.1252 11.3092C38.1684 11.4272 38.1914 11.4963 38.2173 11.5711C38.2432 11.5625 38.2806 11.5625 38.2893 11.5452C38.4332 11.2861 38.5743 11.0242 38.7182 10.7651C39.1039 10.0598 39.4897 9.35166 39.8783 8.64638C40.0194 8.39306 40.0395 8.39018 40.2554 8.51109C40.0482 8.91122 39.8466 9.31424 39.6307 9.70862C39.5357 9.88422 39.4177 10.0512 39.3026 10.2153C39.0291 10.6096 38.7758 11.0127 38.6462 11.5164C38.7124 11.5078 38.7527 11.502 38.8017 11.4934C38.8276 11.5682 38.8564 11.646 38.8909 11.7467C39.078 11.6057 39.1471 11.4157 39.2133 11.2343C39.3429 10.8946 39.4523 10.5463 39.576 10.2037C39.6365 10.031 39.6998 9.86406 39.9071 9.80073C40.0251 9.76331 40.0424 9.63953 40.0309 9.53302C40.0078 9.32863 40.1 9.19045 40.2439 9.05803C40.3187 8.98895 40.4022 8.89395 40.4137 8.80183C40.4397 8.62048 40.4627 8.46791 40.6872 8.43624C40.7275 8.43048 40.7765 8.30958 40.7765 8.24337C40.7765 8.05338 40.8657 7.95838 41.0269 7.86914C41.1939 7.77414 41.3522 7.63885 41.4673 7.48628C41.6285 7.2675 41.7437 7.01705 41.879 6.781C41.8646 6.76949 41.8473 6.75797 41.8329 6.74934C41.5192 7.07751 41.2083 7.40567 40.8945 7.73384C40.8743 7.72233 40.8571 7.71081 40.8369 7.6993C40.9002 7.55824 40.9377 7.39992 41.0269 7.28189C41.2802 6.94509 41.5479 6.6198 41.8185 6.29451C41.8905 6.20815 41.9913 6.14481 42.0891 6.06709C42.1381 6.10451 42.1812 6.13618 42.2417 6.18224C42.2964 6.14194 42.3655 6.10739 42.4115 6.05558C43.7213 4.57594 45.3507 3.58567 47.1873 2.90055C48.12 2.55223 49.0469 2.18663 49.9767 1.8268C50.0803 1.7865 50.1753 1.72893 50.2559 1.63969C50.1465 1.65408 50.0372 1.67135 49.9278 1.68575C49.922 1.67135 49.9162 1.65696 49.9134 1.64544C50.0803 1.56196 50.2473 1.48136 50.4114 1.39788C50.5064 1.34894 50.5956 1.30288 50.5726 1.16183C50.5668 1.11577 50.6244 1.03229 50.6705 1.01501C50.9036 0.925775 51.1368 0.839414 51.3959 0.896988C51.4736 0.91426 51.5801 0.917139 51.6377 0.873958C51.9687 0.629271 52.3631 0.637907 52.7402 0.603363C54.1882 0.47958 55.6103 0.623514 57.0035 1.04668C57.4987 1.19637 58.0082 1.28849 58.5062 1.42666C58.9668 1.5562 59.4331 1.67711 59.8736 1.85847C60.9732 2.31042 62.0383 2.84297 63.0459 3.47628C63.9958 4.07217 64.9314 4.69972 65.7461 5.47984C66.2815 5.98937 66.7882 6.52768 67.3063 7.0516C67.3725 7.12069 67.4387 7.18977 67.5107 7.2675C67.5366 7.22432 67.5568 7.18689 67.5913 7.12644C67.8964 7.5237 68.2131 7.89793 68.3427 8.39306C68.3657 8.38154 68.3916 8.37003 68.4146 8.35852C68.3685 8.23761 68.3369 8.11095 68.2764 8.00156C67.7813 7.08902 67.2487 6.19951 66.5521 5.42515C66.3679 5.22076 66.1376 5.05667 65.9332 4.86956C65.7691 4.72275 65.7662 4.69684 65.8641 4.44927C65.7202 4.35428 65.5734 4.25352 65.4208 4.15853C65.2999 4.08368 65.1675 4.02323 65.0523 3.93687C64.989 3.88793 64.9113 3.80733 64.9084 3.73824C64.9026 3.50795 64.7529 3.38992 64.5917 3.29205C64.3787 3.16538 64.1542 3.05312 63.9268 2.95524C63.5065 2.77676 63.1294 2.53783 62.7724 2.2586C62.6976 2.19815 62.6198 2.14058 62.5594 2.06573C62.4442 1.91892 62.3089 1.80665 62.1362 1.73468C62.0815 1.71165 62.0412 1.65408 61.9865 1.60802C62.2283 1.4756 62.6054 1.66559 62.7407 1.98801C63.2042 1.96498 63.5612 2.23557 63.9181 2.49177C64.2319 2.71631 64.5601 2.90918 64.9429 2.99266C65.0638 3.01857 65.1761 3.07615 65.2941 3.11933C65.4409 3.17402 65.5734 3.24311 65.6281 3.41007C65.6741 3.54825 65.7893 3.58279 65.9073 3.53961C66.0656 3.48204 66.2153 3.4734 66.3851 3.53673C66.2009 3.23447 65.8641 3.07327 65.6655 2.7307C65.8929 2.74222 65.962 2.93221 66.1405 2.98403C66.1174 2.90055 66.1002 2.82858 66.0771 2.74798C66.1059 2.75373 66.1376 2.75086 66.1606 2.76237C66.2902 2.83146 66.2902 2.96388 66.3189 3.08478C66.365 3.28917 66.437 3.37553 66.6212 3.36401C66.9321 3.34386 67.1307 3.48492 67.2775 3.73824C67.2919 3.76415 67.3121 3.7843 67.338 3.81884C67.4071 3.76991 67.4647 3.72673 67.5193 3.68642C67.5366 3.7037 67.5596 3.71521 67.5654 3.72961C67.7439 4.20459 68.1066 4.53563 68.4751 4.85805C68.809 5.14879 69.0882 5.47984 69.3128 5.87134C69.569 6.32041 69.8885 6.73206 70.1706 7.16674C71.2098 8.7788 72.013 10.506 72.6232 12.3196C72.8794 13.0853 73.0262 13.8798 73.1241 14.6801C73.2594 15.7941 73.3602 16.9111 73.4811 18.0251C73.5271 18.454 73.5876 18.883 73.6538 19.309C73.7718 20.069 73.7258 20.8261 73.553 21.5659C73.2306 22.9563 72.8766 24.338 72.534 25.7256C72.5225 25.7716 72.5081 25.8148 72.5254 25.8753C72.5685 25.8119 72.6146 25.7486 72.6578 25.6824C72.6722 25.6853 72.6837 25.691 72.6981 25.6939C72.6837 25.7918 72.6837 25.8954 72.652 25.9875C72.4592 26.569 72.2663 27.1505 72.0619 27.7262C71.9813 27.9565 71.8402 28.1465 71.6301 28.2876C71.561 28.3336 71.5034 28.4056 71.4574 28.4747C71.4315 28.515 71.4228 28.5985 71.4458 28.6244C71.5725 28.7597 71.5207 28.8979 71.4545 29.0217C71.3768 29.1742 71.276 29.3153 71.1781 29.4563C71.0371 29.6607 70.8816 29.8593 70.7435 30.0637C70.6542 30.199 70.588 30.343 70.5995 30.5186C70.6053 30.5992 70.5506 30.7143 70.4844 30.7604C70.09 31.0396 69.8827 31.4513 69.6812 31.8658C69.5603 32.1133 69.3962 32.3149 69.1832 32.4876C68.9673 32.6603 68.7543 32.8417 68.5499 33.0288C68.3973 33.1698 68.2448 33.3166 68.1728 33.5556C68.2563 33.5556 68.3225 33.5556 68.4463 33.5556C68.3167 33.688 68.2275 33.7945 68.1239 33.8837C67.9051 34.068 67.6633 34.2321 67.456 34.4278C67.3121 34.5631 67.1883 34.7272 67.0875 34.897C67.0098 35.0294 66.9379 35.1158 66.7738 35.064C66.6442 35.0208 66.5291 35.0496 66.4053 35.1475C66.4485 35.3634 66.3218 35.5073 66.1549 35.634C66.0483 35.7146 65.9476 35.8038 65.8439 35.8902C65.628 36.0744 65.3891 36.2097 65.1013 36.2356C65.0437 36.2414 64.989 36.2644 64.9343 36.2759C64.7846 36.3105 64.7126 36.3997 64.6982 36.558C64.6723 36.8459 64.6407 36.8718 64.3643 36.9294C64.2981 36.9438 64.2348 36.961 64.1657 36.9697C64.0189 36.9869 63.9152 37.0618 63.8577 37.1942C63.7627 37.4245 63.5727 37.5166 63.3453 37.5598C63.1092 37.603 62.876 37.6519 62.64 37.7037C62.4471 37.7469 62.2773 37.8131 62.1909 38.0204C62.1679 38.0751 62.0758 38.1298 62.0153 38.1298C61.6296 38.1298 61.2755 38.2651 60.9416 38.4205C60.2133 38.7602 59.4504 38.9646 58.6674 39.1172C58.4026 39.169 58.1406 39.2179 57.8758 39.2611C57.8067 39.2726 57.7318 39.264 57.6455 39.2237C57.7059 39.1863 57.7606 39.1373 57.824 39.1172C58.1521 39.0107 58.4803 38.9099 58.8114 38.8149C60.078 38.4522 61.2899 37.9484 62.4701 37.3698C62.8818 37.1654 63.2791 36.9323 63.6792 36.7077C63.7828 36.6501 63.8778 36.5695 63.9642 36.4745C63.7483 36.4602 63.6101 36.6588 63.3971 36.6789C63.4028 36.6127 63.4057 36.558 63.4115 36.4745C63.2675 36.535 63.138 36.5926 63.0085 36.6473C62.8271 36.7221 62.9077 36.8948 62.8703 37.0301C62.8242 37.0445 62.7782 37.0733 62.7379 37.0704C62.4039 37.0359 62.1189 37.1712 61.8397 37.3238C61.4108 37.5569 60.9848 37.8016 60.5558 38.0319C60.3025 38.1701 60.0463 38.3025 59.7498 38.3227C59.7037 38.3255 59.6577 38.3227 59.5944 38.3227C59.6145 38.1787 59.7296 38.1528 59.8102 38.1096C60.1586 37.9283 60.5242 37.7728 60.8581 37.5713C61.9865 36.8862 63.1639 36.2702 64.1542 35.3749C64.3442 35.2022 64.5745 35.0726 64.7846 34.9229C64.9257 34.8222 65.0696 34.7272 65.2049 34.6207C65.274 34.566 65.3229 34.4883 65.3603 34.3933C65.0264 34.5084 64.776 34.7589 64.4449 34.8855C64.491 34.8308 64.5284 34.7732 64.5802 34.7272C64.7616 34.5689 64.94 34.4076 65.13 34.2637C66.1836 33.4606 67.0328 32.4559 67.8821 31.4541C68.0893 31.2094 68.2505 30.9273 68.4348 30.6625C68.4146 30.6452 68.3945 30.6308 68.3743 30.6136C68.3139 30.6855 68.2448 30.7546 68.1901 30.8323C67.9972 31.0943 67.8245 31.3764 67.6143 31.6211C67.41 31.86 67.1825 32.0846 66.935 32.2774C66.7219 32.4444 66.5233 32.6171 66.365 32.8388C66.2239 33.0345 66.0886 33.2188 65.8094 33.2504C65.7 33.2619 65.6079 33.4116 65.51 33.5009C65.2941 33.7024 65.084 33.9125 64.8595 34.1025C64.7904 34.163 64.6781 34.1716 64.586 34.2033C64.5716 34.1831 64.5543 34.163 64.5399 34.1428C64.6205 34.0363 64.6982 33.9269 64.7788 33.8204C64.7702 33.8089 64.7616 33.7974 64.7529 33.7859C64.704 33.8204 64.6522 33.8492 64.609 33.8895C63.2244 35.1791 61.5576 35.9996 59.8563 36.7624C59.6404 36.8603 59.4216 36.9553 59.2057 37.0532C59.1913 36.9985 59.1798 36.9812 59.1683 36.9639ZM41.3608 9.84679C41.8646 9.47256 42.2072 8.99183 42.3453 8.35564C42.1697 8.43912 42.1784 8.43912 42.1582 8.58305C42.1496 8.65502 42.1237 8.73274 42.0863 8.7932C41.9769 8.97167 41.856 9.14439 41.7379 9.31424C41.6142 9.49271 41.4846 9.66543 41.3579 9.84103C41.1017 10.0541 41.0528 10.1548 41.1248 10.3707C41.2083 10.1807 41.286 10.0138 41.3608 9.84679ZM54.099 1.73756C54.2055 1.76347 54.2573 1.7865 54.3091 1.78938C54.6258 1.80665 54.9424 1.84407 55.2562 1.8268C55.6218 1.80665 55.9327 1.89589 56.2177 2.12042C56.5458 2.37663 56.9258 2.43708 57.3317 2.39678C57.5016 2.37951 57.6743 2.39102 57.847 2.39966C58.2586 2.42269 58.6214 2.60692 58.987 2.77388C59.3007 2.91494 59.6174 3.02433 59.9686 3.00994C58.1435 2.07437 56.2666 1.38636 54.099 1.73756ZM60.3831 3.0819C60.481 3.34386 60.6739 3.47052 60.9157 3.54249C61.0078 3.57128 61.1028 3.60006 61.1776 3.65764C61.6065 3.99156 62.1564 4.13838 62.5421 4.54715C62.6371 4.6479 62.781 4.70836 62.9135 4.76017C63.1841 4.86956 63.4201 5.02789 63.636 5.21788C63.7656 5.33015 63.9009 5.43666 64.0361 5.54317C64.0793 5.57772 64.134 5.59787 64.183 5.62377C64.1254 5.49423 64.0505 5.39348 63.9671 5.30424C63.1841 4.46367 62.26 3.80157 61.2784 3.2172C61.1172 3.11933 60.9301 3.06463 60.7516 2.99554C60.6134 2.94373 60.4839 2.94948 60.3831 3.0819ZM38.344 13.0997C38.629 12.8435 38.8765 12.144 38.8247 11.8503C38.8074 11.7467 38.7585 11.6661 38.5771 11.6172C38.793 11.882 38.6462 12.0778 38.5771 12.2822C38.5167 12.4635 38.4476 12.642 38.39 12.8233C38.367 12.8953 38.3641 12.9702 38.344 13.0997ZM48.4366 2.66449C47.9069 2.83722 47.4809 3.18554 47.0261 3.48204C47.6047 3.39856 47.9674 2.93797 48.4366 2.66449ZM40.9866 9.80937C40.6296 10.221 40.4627 10.7392 40.2266 11.2199C40.5634 10.7968 40.811 10.3247 40.9866 9.80937ZM62.5939 6.57374C62.7292 6.81267 63.4144 7.44598 63.6504 7.54961C63.2244 6.94509 62.8472 6.59677 62.5939 6.57374ZM62.712 30.3113C62.4845 30.3775 62.427 30.4034 62.3233 30.6222C62.1823 30.9187 61.9635 31.1375 61.7159 31.339C61.6353 31.4052 61.5634 31.4858 61.4856 31.5606C61.5029 31.5779 61.5202 31.5923 61.5403 31.6096C61.9952 31.2325 62.3867 30.8036 62.712 30.3113ZM51.5945 4.0808C51.6032 4.10095 51.6089 4.1211 51.6175 4.14413C51.986 4.06929 52.3545 3.99444 52.7431 3.91384C52.6366 3.76703 52.5272 3.73824 52.3948 3.78718C52.1271 3.88217 51.8594 3.98005 51.5945 4.0808ZM37.109 20.9124C37.0371 21.1859 37.1234 21.563 37.2875 21.7789C37.3652 21.4651 37.3048 21.1542 37.109 20.9124ZM39.9474 15.8344C39.8207 15.9928 39.7747 16.1252 39.7776 16.2691C39.7804 16.4044 39.8841 16.4476 39.9935 16.4562C40.1144 16.4649 40.1662 16.3958 40.1431 16.2634C40.0942 16.2547 40.0424 16.2461 39.9733 16.2346C39.9675 16.1194 39.9589 16.0043 39.9474 15.8344ZM36.4844 11.0961C36.6024 11.027 36.7924 11.0616 36.8125 10.8716C36.8269 10.7449 36.7809 10.6499 36.634 10.6183C36.4901 10.7449 36.4901 10.9148 36.4844 11.0961ZM40.6815 22.5331C40.739 22.8642 40.8715 23.0916 41.0643 23.1981C41.0154 22.9304 40.8772 22.7317 40.6815 22.5331ZM64.0246 30.5934C63.8231 30.6884 63.6446 30.8122 63.5065 31.054C63.7943 30.9791 63.9239 30.8036 64.0246 30.5934ZM36.8989 14.6225C37.0284 14.4786 37.0946 14.3145 37.0889 14.09C36.9363 14.2598 36.8586 14.4181 36.8989 14.6225ZM42.3626 10.1289C42.4835 9.94755 42.6044 9.76907 42.7282 9.58771C42.5065 9.70862 42.4 9.89573 42.3626 10.1289ZM34.6593 26.2236C34.6391 25.904 34.5758 25.7716 34.3772 25.6306C34.4779 25.8407 34.5556 26.0048 34.6593 26.2236ZM62.9279 31.5059C63.1927 31.4196 63.2445 31.362 63.2877 31.1202C63.1495 31.2699 63.0372 31.3879 62.9279 31.5059ZM65.5273 6.72343C65.4381 6.53919 65.3287 6.43844 65.1329 6.37223C65.297 6.63131 65.297 6.63131 65.5273 6.72343ZM41.7005 8.93713C41.7178 8.95152 41.7379 8.96592 41.7552 8.98319C41.8416 8.86516 41.9308 8.74714 42.0172 8.62911C41.856 8.68668 41.7207 8.76729 41.7005 8.93713ZM64.3672 8.11383C64.3442 8.12534 64.324 8.13398 64.301 8.14549C64.3413 8.28655 64.3931 8.42185 64.5658 8.48518C64.4996 8.36139 64.4334 8.23761 64.3672 8.11383ZM37.2443 13.6553C37.276 13.661 37.3048 13.6639 37.3364 13.6697C37.3508 13.5632 37.3623 13.4595 37.3767 13.353C37.3508 13.3501 37.3278 13.3473 37.3019 13.3415C37.2817 13.4451 37.2645 13.5488 37.2443 13.6553ZM62.9941 32.6776C63.2272 32.6833 63.2272 32.6833 63.3424 32.4789C63.2128 32.5538 63.1322 32.5998 62.9941 32.6776ZM41.0039 10.5837C40.9895 10.5665 40.9722 10.5492 40.9578 10.5348C40.9002 10.5924 40.8427 10.6528 40.7505 10.7449C40.9607 10.7708 40.9751 10.6701 41.0039 10.5837ZM65.0638 33.4491C65.084 33.4778 65.1041 33.5066 65.1243 33.5354C65.1962 33.4836 65.2682 33.4289 65.3431 33.3771C65.3315 33.3569 65.32 33.3368 65.3056 33.3195C65.225 33.3627 65.1444 33.4059 65.0638 33.4491ZM40.3245 21.7559C40.3015 21.7703 40.2813 21.7875 40.2583 21.8019C40.3015 21.8653 40.3447 21.9315 40.4166 22.038C40.4598 21.8624 40.4339 21.7875 40.3245 21.7559ZM64.7616 29.8737C64.7414 29.8565 64.7213 29.8392 64.7011 29.819C64.6263 29.8968 64.5198 29.9543 64.5111 30.1443C64.6176 30.0321 64.6896 29.9543 64.7616 29.8737ZM46.7583 6.96812C46.6087 7.04872 46.6087 7.04872 46.6432 7.19841C46.6893 7.10341 46.7238 7.03433 46.7583 6.96812ZM64.9055 29.5772C64.9257 29.5888 64.9429 29.6003 64.9631 29.6118C65.0005 29.5456 65.0408 29.4794 65.0782 29.4132C65.0638 29.4045 65.0494 29.3959 65.035 29.3872C64.989 29.4506 64.9487 29.5139 64.9055 29.5772Z" fill="white"/>
<path d="M27.6583 0.024641C30.2002 0.024641 32.719 0.024641 35.2839 0.024641C30.632 12.1784 25.9916 24.3005 21.3483 36.4226C18.8697 36.4226 16.4142 36.4226 13.9328 36.4226C9.29237 24.3005 4.65194 12.1784 0 0.0275197C2.55914 0.0275197 5.07798 0.0275197 7.62561 0.0275197C10.9505 9.21049 14.2811 18.405 17.6089 27.5995C17.6319 27.5995 17.652 27.5995 17.6751 27.5995C21.0028 18.4079 24.3306 9.21337 27.6583 0.024641Z" fill="white"/>
<path d="M77.2522 0.0239606C79.5148 0.0239606 81.7544 0.0231171 84.0113 0.0231171C84.0113 12.1539 84.0113 24.2673 84.0113 36.3837C83.8098 36.4441 77.5832 36.4585 77.2522 36.3952C77.2522 24.2846 77.2522 12.172 77.2522 0.0239606Z" fill="white"/>
<path d="M79.7854 48.2339C80.0877 48.7751 80.3842 49.3076 80.7066 49.8891C80.4676 49.892 80.2719 49.9064 80.079 49.8891C80.0157 49.8833 79.9437 49.7941 79.9034 49.7279C79.6962 49.3709 79.5004 49.0111 79.2989 48.6513C79.2384 48.5419 79.1751 48.4354 79.1089 48.326C78.8441 48.326 78.5879 48.326 78.2914 48.326C78.2914 48.847 78.2914 49.3566 78.2914 49.8833C78.0726 49.8833 77.8941 49.8833 77.6984 49.8833C77.6984 48.5333 77.6984 47.1976 77.6984 45.8446C77.7243 45.8331 77.7588 45.8101 77.7934 45.8101C78.3202 45.8129 78.847 45.7985 79.3737 45.8273C79.9725 45.859 80.436 46.239 80.5396 46.7629C80.6519 47.3242 80.4878 47.8194 79.9725 48.1187C79.9149 48.1533 79.8602 48.1878 79.7854 48.2339ZM78.3058 46.3426C78.3058 46.8377 78.3058 47.3012 78.3058 47.7791C78.657 47.7791 78.9938 47.8078 79.3248 47.7704C79.7681 47.7215 79.9524 47.4566 79.9668 47.0565C79.9783 46.6593 79.699 46.3685 79.2874 46.3455C78.9736 46.3282 78.657 46.3426 78.3058 46.3426Z" fill="white"/>
<path d="M101.816 48.5678C102 48.5333 102.173 48.4988 102.348 48.4642C102.403 48.6139 102.441 48.7434 102.495 48.8643C102.743 49.4171 103.428 49.6387 103.955 49.3393C104.197 49.204 104.303 48.9939 104.289 48.7175C104.274 48.4527 104.13 48.2857 103.894 48.2051C103.696 48.1389 103.486 48.1015 103.281 48.0641C102.898 47.9979 102.533 47.8971 102.245 47.6121C101.801 47.1688 101.83 46.4607 102.308 46.0577C102.792 45.6489 103.699 45.5913 104.234 45.931C104.548 46.1325 104.741 46.4549 104.801 46.9184C104.715 46.9385 104.628 46.9616 104.539 46.9817C104.456 46.999 104.372 47.0134 104.274 47.0306C104.24 46.9414 104.211 46.8637 104.176 46.7859C103.949 46.2592 103.27 46.0663 102.795 46.3945C102.455 46.6276 102.461 47.1055 102.809 47.3415C103.013 47.4797 103.249 47.5143 103.488 47.5574C103.733 47.6006 103.984 47.6409 104.211 47.7359C105.19 48.1447 105.014 49.2213 104.473 49.6617C103.75 50.2461 102.147 50.1396 101.836 48.7607C101.819 48.706 101.822 48.6484 101.816 48.5678Z" fill="white"/>
<path d="M43.5688 48.4987C43.753 48.5419 43.9113 48.5764 44.0639 48.6109C44.061 49.0312 43.7559 49.5033 43.3385 49.7538C42.639 50.1712 41.6228 50.0388 41.0557 49.4544C40.267 48.6426 40.29 47.0133 41.1018 46.2245C41.6861 45.6574 42.6994 45.5394 43.3961 45.9655C43.776 46.1986 43.9948 46.5412 44.0841 47.0047C43.8826 47.0421 43.707 47.0737 43.5198 47.1083C43.4882 47.045 43.4565 46.996 43.4392 46.9442C43.114 46.0489 41.9337 46.0547 41.4414 46.7024C41.0039 47.281 41.0096 48.4296 41.4501 49.0111C41.9107 49.6156 43.0996 49.6818 43.4565 48.7549C43.4911 48.6772 43.5256 48.6023 43.5688 48.4987Z" fill="white"/>
<path d="M19.1173 48.398C19.1173 48.6773 19.1173 48.9133 19.1173 49.1523C19.1173 49.3883 19.1173 49.6244 19.1173 49.8806C18.9043 49.8806 18.7258 49.8806 18.5502 49.8806C18.4897 49.6819 18.4667 46.2966 18.5243 45.8504C18.5387 45.8389 18.5531 45.8187 18.5675 45.8187C19.123 45.8187 19.6815 45.7813 20.2313 45.836C21.0633 45.9166 21.5497 46.5326 21.3482 47.4596C21.2302 47.9979 20.8272 48.2656 20.3062 48.3549C20.1104 48.3894 19.906 48.3894 19.7074 48.398C19.5261 48.4038 19.3447 48.398 19.1173 48.398ZM19.1346 47.8453C19.4656 47.8453 19.7823 47.8597 20.0931 47.8425C20.5019 47.8194 20.7639 47.5402 20.7869 47.1372C20.8071 46.7342 20.5796 46.4117 20.1738 46.3628C19.8369 46.3225 19.4915 46.3542 19.1346 46.3542C19.1346 46.8493 19.1346 47.3243 19.1346 47.8453Z" fill="white"/>
<path d="M92.5581 46.3484C91.8931 46.3484 91.254 46.3484 90.6006 46.3484C90.6006 46.76 90.6006 47.1458 90.6006 47.5632C91.2051 47.5632 91.7952 47.5632 92.4026 47.5632C92.4141 47.6639 92.4228 47.7359 92.4285 47.8078C92.4314 47.8827 92.4285 47.9604 92.4285 48.0698C92.1176 48.113 91.8154 48.0871 91.5131 48.09C91.2166 48.0957 90.923 48.09 90.6063 48.09C90.6063 48.5218 90.6063 48.9277 90.6063 49.3681C91.2684 49.3681 91.9247 49.3681 92.6012 49.3681C92.6012 49.5581 92.6012 49.7135 92.6012 49.8834C91.7319 49.8834 90.8827 49.8834 90.0392 49.8834C89.9788 49.6588 89.9586 46.4146 90.0076 45.859C90.2004 45.7928 92.1781 45.7726 92.5609 45.8359C92.558 45.9972 92.5581 46.1612 92.5581 46.3484Z" fill="white"/>
<path d="M65.1761 45.8216C65.3863 45.8216 65.5619 45.8216 65.7691 45.8216C65.7691 45.9425 65.7691 46.0461 65.7691 46.1469C65.7691 46.8579 65.7662 47.5661 65.772 48.2771C65.772 48.4498 65.7864 48.6254 65.8267 48.7895C65.9303 49.2156 66.2729 49.4574 66.7479 49.4545C67.22 49.4545 67.5597 49.2098 67.6662 48.7809C67.6978 48.6514 67.7094 48.5161 67.7094 48.3836C67.7122 47.6438 67.7122 46.9069 67.7122 46.167C67.7122 46.0634 67.7122 45.9569 67.7122 45.8274C67.9137 45.8274 68.098 45.8274 68.3024 45.8274C68.3081 45.9252 68.3168 46.0174 68.3168 46.1124C68.3168 46.8608 68.3196 47.6093 68.3168 48.3577C68.3168 48.5103 68.3139 48.6686 68.2822 48.8154C68.1037 49.6502 67.4906 49.9899 66.7047 49.9928C66.5435 49.9928 66.3794 49.9583 66.224 49.9151C65.6194 49.751 65.2941 49.3394 65.1991 48.732C65.179 48.6082 65.1819 48.4844 65.179 48.3577C65.1761 47.6179 65.179 46.881 65.179 46.1411C65.1761 46.0433 65.1761 45.9425 65.1761 45.8216Z" fill="white"/>
<path d="M54.833 46.3311C54.833 47.5344 54.833 48.6916 54.833 49.8747C54.6373 49.8747 54.4617 49.8747 54.2515 49.8747C54.2429 49.774 54.2285 49.6617 54.2285 49.5523C54.2256 48.5937 54.2285 47.6351 54.2285 46.6765C54.2285 46.5729 54.2285 46.4693 54.2285 46.3397C53.7852 46.3397 53.3764 46.3397 52.9532 46.3397C52.9532 46.1641 52.9532 46.0144 52.9532 45.8619C53.1432 45.7928 55.6678 45.7726 56.0795 45.8388C56.0795 45.9914 56.0795 46.1497 56.0795 46.3311C55.6707 46.3311 55.2735 46.3311 54.833 46.3311Z" fill="white"/>
<path d="M31.1991 49.8834C30.9976 49.8834 30.8219 49.8834 30.6435 49.8834C30.5859 49.6732 30.5715 46.1929 30.6262 45.8244C30.8075 45.8244 30.9947 45.8244 31.1962 45.8244C31.199 47.1745 31.1991 48.5131 31.1991 49.8834Z" fill="white"/>
<path d="M40.336 8.36132C40.3447 7.91801 40.3504 7.91225 40.7333 7.86619C40.6009 8.03027 40.4886 8.17133 40.336 8.36132Z" fill="white"/>
</g>
</svg>
